<?xml version="1.0" encoding="UTF-8"?>
<!DOCTYPE svg PUBLIC "-//W3C//DTD SVG 1.1//EN" "http://www.w3.org/Graphics/SVG/1.1/DTD/svg11.dtd">
<svg xmlns="http://www.w3.org/2000/svg" version="1.1" width="512px" height="510px" style="shape-rendering:geometricPrecision; text-rendering:geometricPrecision; image-rendering:optimizeQuality; fill-rule:evenodd; clip-rule:evenodd" xmlns:xlink="http://www.w3.org/1999/xlink">
<g><path style="opacity:1" fill="#a2a2a3" d="M 367.5,-0.5 C 371.833,-0.5 376.167,-0.5 380.5,-0.5C 419.854,18.0078 459.187,36.8411 498.5,56C 504.713,60.9554 509.047,67.122 511.5,74.5C 511.5,194.5 511.5,314.5 511.5,434.5C 509.047,441.878 504.713,448.045 498.5,453C 459.267,472.339 419.934,491.172 380.5,509.5C 376.167,509.5 371.833,509.5 367.5,509.5C 363.992,508.217 360.658,506.551 357.5,504.5C 369.573,507.091 378.073,502.758 383,491.5C 383.5,450.835 383.667,410.168 383.5,369.5C 383.5,292.833 383.5,216.167 383.5,139.5C 383.667,98.832 383.5,58.1653 383,17.5C 378.106,6.13598 369.606,1.80264 357.5,4.5C 360.658,2.44949 363.992,0.78282 367.5,-0.5 Z"/></g>
<g><path style="opacity:1" fill="#737474" d="M 383.5,139.5 C 332.804,177.509 282.137,215.509 231.5,253.5C 230.883,253.611 230.383,253.944 230,254.5C 202.855,233.692 175.688,213.025 148.5,192.5C 216.208,132.634 283.208,71.8009 349.5,10C 352.065,7.92048 354.732,6.08715 357.5,4.5C 369.606,1.80264 378.106,6.13598 383,17.5C 383.5,58.1653 383.667,98.832 383.5,139.5 Z"/></g>
<g><path style="opacity:1" fill="#878788" d="M 148.5,192.5 C 175.688,213.025 202.855,233.692 230,254.5C 230.383,253.944 230.883,253.611 231.5,253.5C 281.34,293.105 332.007,331.772 383.5,369.5C 383.667,410.168 383.5,450.835 383,491.5C 378.073,502.758 369.573,507.091 357.5,504.5C 354.732,502.913 352.065,501.08 349.5,499C 283.193,437.218 216.193,376.384 148.5,316.5C 146.78,313.269 144.447,310.436 141.5,308C 121.305,289.968 101.305,271.801 81.5,253.5C 55.2386,230.744 29.4053,207.41 4,183.5C 2.20496,180.901 0.704964,178.234 -0.5,175.5C -0.5,171.167 -0.5,166.833 -0.5,162.5C 0.374833,160.432 1.5415,158.432 3,156.5C 14.9463,144.214 27.7796,133.047 41.5,123C 49.4435,120.817 56.7768,122.151 63.5,127C 92.0187,148.697 120.352,170.53 148.5,192.5 Z"/></g>
<g><path style="opacity:1" fill="#737474" d="M 81.5,253.5 C 101.305,271.801 121.305,289.968 141.5,308C 144.447,310.436 146.78,313.269 148.5,316.5C 121.569,337.313 94.5688,358.147 67.5,379C 57.7652,388.15 47.0985,389.483 35.5,383C 24.6667,372.833 13.8333,362.667 3,352.5C 1.5415,350.568 0.374833,348.568 -0.5,346.5C -0.5,342.167 -0.5,337.833 -0.5,333.5C 1.60895,328.818 4.60895,324.651 8.5,321C 33.7032,299.291 58.0365,276.791 81.5,253.5 Z"/></g>
</svg>
