<?xml version="1.0" encoding="UTF-8"?>
<!DOCTYPE svg PUBLIC "-//W3C//DTD SVG 1.1//EN" "http://www.w3.org/Graphics/SVG/1.1/DTD/svg11.dtd">
<svg xmlns="http://www.w3.org/2000/svg" version="1.1" width="512px" height="512px" style="shape-rendering:geometricPrecision; text-rendering:geometricPrecision; image-rendering:optimizeQuality; fill-rule:evenodd; clip-rule:evenodd" xmlns:xlink="http://www.w3.org/1999/xlink">
<g><path style="opacity:0.995" fill="#1572b6" d="M 34.5,4.5 C 181.833,4.5 329.167,4.5 476.5,4.5C 463.718,154.55 450.385,304.55 436.5,454.5C 436.182,455.647 435.516,456.481 434.5,457C 374.722,473.704 314.889,490.204 255,506.5C 196.502,490.334 138.002,474.168 79.5,458C 77.3485,457.735 75.6819,456.735 74.5,455C 60.5361,304.896 47.2027,154.73 34.5,4.5 Z"/></g>
<g><path style="opacity:1" fill="#33a9db" d="M 255.5,406.5 C 256.492,406.672 257.158,406.338 257.5,405.5C 294.77,395.557 331.937,385.224 369,374.5C 377.205,282.16 385.371,189.827 393.5,97.5C 394.451,96.0813 394.784,94.4147 394.5,92.5C 348.167,92.5 301.833,92.5 255.5,92.5C 255.5,75.5 255.5,58.5 255.5,41.5C 315.833,41.5 376.167,41.5 436.5,41.5C 424.721,169.791 413.221,298.124 402,426.5C 353.549,440.307 305.049,453.973 256.5,467.5C 255.5,447.178 255.167,426.844 255.5,406.5 Z"/></g>
<g><path style="opacity:1" fill="#6ac0e5" d="M 255.5,93.5 C 255.5,93.1667 255.5,92.8333 255.5,92.5C 301.833,92.5 348.167,92.5 394.5,92.5C 394.784,94.4147 394.451,96.0813 393.5,97.5C 393.5,96.1667 393.5,94.8333 393.5,93.5C 347.5,93.5 301.5,93.5 255.5,93.5 Z"/></g>
<g><path style="opacity:1" fill="#eaeaea" d="M 255.5,93.5 C 255.5,111.833 255.5,130.167 255.5,148.5C 210.833,148.5 166.167,148.5 121.5,148.5C 120.648,130.132 119.315,111.799 117.5,93.5C 163.5,93.5 209.5,93.5 255.5,93.5 Z"/></g>
<g><path style="opacity:1" fill="#fefefe" d="M 255.5,93.5 C 301.5,93.5 347.5,93.5 393.5,93.5C 393.5,94.8333 393.5,96.1667 393.5,97.5C 385.371,189.827 377.205,282.16 369,374.5C 331.937,385.224 294.77,395.557 257.5,405.5C 256.503,386.674 256.17,367.674 256.5,348.5C 276.807,343.007 297.14,337.673 317.5,332.5C 319.56,308.504 321.56,284.504 323.5,260.5C 300.833,260.5 278.167,260.5 255.5,260.5C 255.5,242.167 255.5,223.833 255.5,205.5C 279.836,205.667 304.169,205.5 328.5,205C 330.424,186.238 332.091,167.405 333.5,148.5C 307.5,148.5 281.5,148.5 255.5,148.5C 255.5,130.167 255.5,111.833 255.5,93.5 Z"/></g>
<g><path style="opacity:1" fill="#35a9dc" d="M 255.5,148.5 C 281.5,148.5 307.5,148.5 333.5,148.5C 332.091,167.405 330.424,186.238 328.5,205C 304.169,205.5 279.836,205.667 255.5,205.5C 255.5,205.167 255.5,204.833 255.5,204.5C 255.5,185.833 255.5,167.167 255.5,148.5 Z"/></g>
<g><path style="opacity:1" fill="#5093c4" d="M 255.5,204.5 C 255.5,204.833 255.5,205.167 255.5,205.5C 233.833,205.5 212.167,205.5 190.5,205.5C 190.5,208.167 190.5,210.833 190.5,213.5C 189.523,210.713 189.19,207.713 189.5,204.5C 211.5,204.5 233.5,204.5 255.5,204.5 Z"/></g>
<g><path style="opacity:1" fill="#eaeaea" d="M 255.5,205.5 C 255.5,223.833 255.5,242.167 255.5,260.5C 235.167,260.5 214.833,260.5 194.5,260.5C 193.285,244.801 191.951,229.134 190.5,213.5C 190.5,210.833 190.5,208.167 190.5,205.5C 212.167,205.5 233.833,205.5 255.5,205.5 Z"/></g>
<g><path style="opacity:1" fill="#34a9dc" d="M 255.5,260.5 C 278.167,260.5 300.833,260.5 323.5,260.5C 321.56,284.504 319.56,308.504 317.5,332.5C 297.14,337.673 276.807,343.007 256.5,348.5C 256.167,348.5 255.833,348.5 255.5,348.5C 255.5,319.167 255.5,289.833 255.5,260.5 Z"/></g>
<g><path style="opacity:1" fill="#eaeaea" d="M 255.5,348.5 C 255.833,348.5 256.167,348.5 256.5,348.5C 256.17,367.674 256.503,386.674 257.5,405.5C 257.158,406.338 256.492,406.672 255.5,406.5C 217.827,396 180.161,385.666 142.5,375.5C 140.074,346.478 137.407,317.478 134.5,288.5C 153.167,288.5 171.833,288.5 190.5,288.5C 191.292,303.215 192.626,317.881 194.5,332.5C 214.724,338.306 235.057,343.639 255.5,348.5 Z"/></g>
</svg>
