<?xml version="1.0" encoding="UTF-8"?>
<!DOCTYPE svg PUBLIC "-//W3C//DTD SVG 1.1//EN" "http://www.w3.org/Graphics/SVG/1.1/DTD/svg11.dtd">
<svg xmlns="http://www.w3.org/2000/svg" version="1.1" width="459px" height="459px" style="shape-rendering:geometricPrecision; text-rendering:geometricPrecision; image-rendering:optimizeQuality; fill-rule:evenodd; clip-rule:evenodd" xmlns:xlink="http://www.w3.org/1999/xlink">
<g><path style="opacity:0.994" fill="#939393" d="M 288.5,349.5 C 287.667,384.664 287.167,419.998 287,455.5C 286.5,456 286,456.5 285.5,457C 246.833,457.667 208.167,457.667 169.5,457C 169,456.5 168.5,456 168,455.5C 167.667,436.833 167.333,418.167 167,399.5C 166.31,398.262 165.81,398.262 165.5,399.5C 144.084,403.36 123.084,401.86 102.5,395C 88.3072,389.133 76.8072,379.966 68,367.5C 57.5031,347.16 45.5031,327.827 32,309.5C 26.7114,305.88 21.7114,301.88 17,297.5C 16.2571,295.559 16.4238,293.726 17.5,292C 36.9556,288.707 53.4556,294.207 67,308.5C 73.0873,317.675 79.4207,326.675 86,335.5C 108.265,356.522 134.098,362.355 163.5,353C 164.701,352.097 165.535,350.931 166,349.5C 166.739,334.353 171.239,320.52 179.5,308C 158.545,304.682 138.545,298.348 119.5,289C 78.9197,266.016 58.9197,231.016 59.5,184C 59.7997,166.437 60.9664,148.937 63,131.5C 66.2577,110.653 75.0911,92.6527 89.5,77.5C 80.3586,53.5981 80.1919,29.5981 89,5.5C 89.8333,4.66667 90.6667,3.83333 91.5,3C 95.6818,2.3891 99.6818,3.05577 103.5,5C 118.066,11.7085 130.566,21.2085 141,33.5C 144.511,37.8727 148.011,42.206 151.5,46.5C 164.654,38.4596 178.987,34.293 194.5,34C 219.844,32.562 245.177,32.8953 270.5,35C 282.113,36.3966 292.78,40.2299 302.5,46.5C 309.286,38.5434 316.286,30.71 323.5,23C 334.288,12.7713 346.955,5.93796 361.5,2.5C 363.258,3.12794 364.758,4.12794 366,5.5C 376.135,29.7573 375.968,53.924 365.5,78C 382.411,96.0269 391.577,117.527 393,142.5C 408.181,236.607 369.014,291.773 275.5,308C 282.013,317.536 286.179,328.036 288,339.5C 288.498,342.817 288.665,346.15 288.5,349.5 Z"/></g>
<g><path style="opacity:0.883" fill="#bebebe" d="M 288.5,349.5 C 289.498,385.663 289.832,421.996 289.5,458.5C 248.167,458.5 206.833,458.5 165.5,458.5C 165.5,438.833 165.5,419.167 165.5,399.5C 165.81,398.262 166.31,398.262 167,399.5C 167.333,418.167 167.667,436.833 168,455.5C 168.5,456 169,456.5 169.5,457C 208.167,457.667 246.833,457.667 285.5,457C 286,456.5 286.5,456 287,455.5C 287.167,419.998 287.667,384.664 288.5,349.5 Z"/></g>
</svg>
