<?xml version="1.0" encoding="UTF-8"?>
<!DOCTYPE svg PUBLIC "-//W3C//DTD SVG 1.1//EN" "http://www.w3.org/Graphics/SVG/1.1/DTD/svg11.dtd">
<svg xmlns="http://www.w3.org/2000/svg" version="1.1" width="481px" height="481px" style="shape-rendering:geometricPrecision; text-rendering:geometricPrecision; image-rendering:optimizeQuality; fill-rule:evenodd; clip-rule:evenodd" xmlns:xlink="http://www.w3.org/1999/xlink">
<g><path style="opacity:1" fill="#888787" d="M 61.5,60.5 C 120.915,108.055 180.582,155.388 240.5,202.5C 300.418,155.388 360.085,108.055 419.5,60.5C 435.118,58.3879 449.451,61.5546 462.5,70C 464.706,72.0367 466.706,74.2034 468.5,76.5C 468.427,78.0269 469.094,79.0269 470.5,79.5C 471.906,79.9731 472.573,80.9731 472.5,82.5C 472.427,84.0269 473.094,85.0269 474.5,85.5C 475.931,86.7804 476.598,88.4471 476.5,90.5C 476.565,93.4282 477.232,96.0948 478.5,98.5C 479.666,192.999 479.832,287.666 479,382.5C 474.385,403.449 461.552,415.949 440.5,420C 433.508,420.5 426.508,420.666 419.5,420.5C 419.667,327.166 419.5,233.833 419,140.5C 360.167,186 301.333,231.5 242.5,277C 241.552,277.483 240.552,277.649 239.5,277.5C 180.273,231.963 121.106,186.296 62,140.5C 61.5,233.833 61.3333,327.166 61.5,420.5C 54.4921,420.666 47.4921,420.5 40.5,420C 35.4227,419.405 30.756,417.905 26.5,415.5C 26.0269,414.094 25.0269,413.427 23.5,413.5C 23.0269,412.094 22.0269,411.427 20.5,411.5C 20.0269,410.094 19.0269,409.427 17.5,409.5C 8.81219,402.617 3.64552,393.617 2,382.5C 1.16755,287.666 1.33421,192.999 2.5,98.5C 3.7682,96.0948 4.43487,93.4282 4.5,90.5C 4.40206,88.4471 5.06873,86.7804 6.5,85.5C 7.90632,85.0269 8.57298,84.0269 8.5,82.5C 8.42702,80.9731 9.09368,79.9731 10.5,79.5C 11.9063,79.0269 12.573,78.0269 12.5,76.5C 12.8333,75.5 13.5,74.8333 14.5,74.5C 17.0892,73.5806 19.0892,71.914 20.5,69.5C 20.9731,68.0937 21.9731,67.427 23.5,67.5C 25.0269,67.573 26.0269,66.9063 26.5,65.5C 30.756,63.0949 35.4227,61.5949 40.5,61C 47.4921,60.5004 54.4921,60.3337 61.5,60.5 Z"/></g>
<g><path style="opacity:0.996" fill="#ebebeb" d="M 61.5,60.5 C 180.833,60.5 300.167,60.5 419.5,60.5C 360.085,108.055 300.418,155.388 240.5,202.5C 180.582,155.388 120.915,108.055 61.5,60.5 Z"/></g>
<g><path style="opacity:0.957" fill="#aa7268" d="M 26.5,65.5 C 26.0269,66.9063 25.0269,67.573 23.5,67.5C 23.9731,66.0937 24.9731,65.427 26.5,65.5 Z"/></g>
<g><path style="opacity:0.996" fill="#a07773" d="M 20.5,69.5 C 19.0892,71.914 17.0892,73.5806 14.5,74.5C 15.9108,72.086 17.9108,70.4194 20.5,69.5 Z"/></g>
<g><path style="opacity:0.835" fill="#ab6e69" d="M 12.5,76.5 C 12.573,78.0269 11.9063,79.0269 10.5,79.5C 10.427,77.9731 11.0937,76.9731 12.5,76.5 Z"/></g>
<g><path style="opacity:0.82" fill="#ad6f6b" d="M 468.5,76.5 C 469.906,76.9731 470.573,77.9731 470.5,79.5C 469.094,79.0269 468.427,78.0269 468.5,76.5 Z"/></g>
<g><path style="opacity:0.678" fill="#a86962" d="M 8.5,82.5 C 8.57298,84.0269 7.90632,85.0269 6.5,85.5C 6.42702,83.9731 7.09368,82.9731 8.5,82.5 Z"/></g>
<g><path style="opacity:0.655" fill="#ae6e6c" d="M 472.5,82.5 C 473.906,82.9731 474.573,83.9731 474.5,85.5C 473.094,85.0269 472.427,84.0269 472.5,82.5 Z"/></g>
<g><path style="opacity:0.996" fill="#a47570" d="M 4.5,90.5 C 4.43487,93.4282 3.7682,96.0948 2.5,98.5C 2.29379,95.5049 2.96046,92.8383 4.5,90.5 Z"/></g>
<g><path style="opacity:0.996" fill="#a57572" d="M 476.5,90.5 C 478.04,92.8383 478.706,95.5049 478.5,98.5C 477.232,96.0948 476.565,93.4282 476.5,90.5 Z"/></g>
<g><path style="opacity:0.998" fill="#ebebeb" d="M 239.5,277.5 C 298.647,324.47 357.98,371.303 417.5,418C 418.252,418.671 418.586,419.504 418.5,420.5C 299.5,420.5 180.5,420.5 61.5,420.5C 61.3333,327.166 61.5,233.833 62,140.5C 121.106,186.296 180.273,231.963 239.5,277.5 Z"/></g>
<g><path style="opacity:1" fill="#d8d8d8" d="M 419.5,420.5 C 419.167,420.5 418.833,420.5 418.5,420.5C 418.586,419.504 418.252,418.671 417.5,418C 357.98,371.303 298.647,324.47 239.5,277.5C 240.552,277.649 241.552,277.483 242.5,277C 301.333,231.5 360.167,186 419,140.5C 419.5,233.833 419.667,327.166 419.5,420.5 Z"/></g>
<g><path style="opacity:0.753" fill="#ac6c68" d="M 17.5,409.5 C 19.0269,409.427 20.0269,410.094 20.5,411.5C 18.9731,411.573 17.9731,410.906 17.5,409.5 Z"/></g>
<g><path style="opacity:0.816" fill="#a7706a" d="M 20.5,411.5 C 22.0269,411.427 23.0269,412.094 23.5,413.5C 21.9731,413.573 20.9731,412.906 20.5,411.5 Z"/></g>
<g><path style="opacity:0.514" fill="#b0715f" d="M 23.5,413.5 C 25.0269,413.427 26.0269,414.094 26.5,415.5C 24.9731,415.573 23.9731,414.906 23.5,413.5 Z"/></g>
</svg>
