<?xml version="1.0" encoding="UTF-8"?>
<!DOCTYPE svg PUBLIC "-//W3C//DTD SVG 1.1//EN" "http://www.w3.org/Graphics/SVG/1.1/DTD/svg11.dtd">
<svg xmlns="http://www.w3.org/2000/svg" version="1.1" width="454px" height="454px" style="shape-rendering:geometricPrecision; text-rendering:geometricPrecision; image-rendering:optimizeQuality; fill-rule:evenodd; clip-rule:evenodd" xmlns:xlink="http://www.w3.org/1999/xlink">
<g><path style="opacity:0.996" fill="#e44f26" d="M 26.5,3.5 C 158.5,3.5 290.5,3.5 422.5,3.5C 410.5,138.167 398.5,272.833 386.5,407.5C 332.561,422.368 278.561,437.035 224.5,451.5C 170.439,437.035 116.439,422.368 62.5,407.5C 50.44,272.84 38.44,138.173 26.5,3.5 Z"/></g>
<g><path style="opacity:1" fill="#f1662a" d="M 223.5,365.5 C 223.833,365.5 224.167,365.5 224.5,365.5C 258.449,356.46 292.282,347.126 326,337.5C 329.91,288.474 334.077,239.474 338.5,190.5C 339.451,189.081 339.784,187.415 339.5,185.5C 301.167,185.5 262.833,185.5 224.5,185.5C 224.5,168.833 224.5,152.167 224.5,135.5C 264.5,135.5 304.5,135.5 344.5,135.5C 344.5,133.167 344.5,130.833 344.5,128.5C 345.689,115.182 346.689,101.849 347.5,88.5C 348.404,87.791 348.737,86.791 348.5,85.5C 307.167,85.5 265.833,85.5 224.5,85.5C 224.5,69.1667 224.5,52.8333 224.5,36.5C 278.167,36.5 331.833,36.5 385.5,36.5C 375.547,151.506 365.547,266.506 355.5,381.5C 311.823,393.037 268.156,404.704 224.5,416.5C 224.818,399.423 224.485,382.423 223.5,365.5 Z"/></g>
<g><path style="opacity:1" fill="#f3baa5" d="M 100.5,86.5 C 141.663,85.5014 182.997,85.168 224.5,85.5C 265.833,85.5 307.167,85.5 348.5,85.5C 348.737,86.791 348.404,87.791 347.5,88.5C 306.847,86.5056 265.847,85.839 224.5,86.5C 183.167,86.5 141.833,86.5 100.5,86.5 Z"/></g>
<g><path style="opacity:1" fill="#ebeaea" d="M 100.5,86.5 C 141.833,86.5 183.167,86.5 224.5,86.5C 224.5,102.5 224.5,118.5 224.5,134.5C 200.994,134.169 177.661,134.502 154.5,135.5C 156.348,152.276 158.014,168.942 159.5,185.5C 180.994,186.497 202.66,186.831 224.5,186.5C 224.5,202.833 224.5,219.167 224.5,235.5C 187.5,235.5 150.5,235.5 113.5,235.5C 109.465,185.788 105.132,136.121 100.5,86.5 Z"/></g>
<g><path style="opacity:1" fill="#fffefe" d="M 224.5,86.5 C 265.847,85.839 306.847,86.5056 347.5,88.5C 346.689,101.849 345.689,115.182 344.5,128.5C 343.539,130.265 343.205,132.265 343.5,134.5C 303.833,134.5 264.167,134.5 224.5,134.5C 224.5,118.5 224.5,102.5 224.5,86.5 Z"/></g>
<g><path style="opacity:1" fill="#f8e4db" d="M 344.5,128.5 C 344.5,130.833 344.5,133.167 344.5,135.5C 304.5,135.5 264.5,135.5 224.5,135.5C 201.167,135.5 177.833,135.5 154.5,135.5C 177.661,134.502 200.994,134.169 224.5,134.5C 264.167,134.5 303.833,134.5 343.5,134.5C 343.205,132.265 343.539,130.265 344.5,128.5 Z"/></g>
<g><path style="opacity:1" fill="#e44f26" d="M 154.5,135.5 C 177.833,135.5 201.167,135.5 224.5,135.5C 224.5,152.167 224.5,168.833 224.5,185.5C 202.833,185.5 181.167,185.5 159.5,185.5C 158.014,168.942 156.348,152.276 154.5,135.5 Z"/></g>
<g><path style="opacity:1" fill="#f3a78a" d="M 159.5,185.5 C 181.167,185.5 202.833,185.5 224.5,185.5C 262.833,185.5 301.167,185.5 339.5,185.5C 339.784,187.415 339.451,189.081 338.5,190.5C 338.5,189.167 338.5,187.833 338.5,186.5C 300.5,186.5 262.5,186.5 224.5,186.5C 202.66,186.831 180.994,186.497 159.5,185.5 Z"/></g>
<g><path style="opacity:1" fill="#fffefe" d="M 224.5,186.5 C 262.5,186.5 300.5,186.5 338.5,186.5C 338.5,187.833 338.5,189.167 338.5,190.5C 334.077,239.474 329.91,288.474 326,337.5C 292.282,347.126 258.449,356.46 224.5,365.5C 224.5,348.5 224.5,331.5 224.5,314.5C 242.471,309.506 260.471,304.506 278.5,299.5C 281.279,278.261 283.279,256.928 284.5,235.5C 264.5,235.5 244.5,235.5 224.5,235.5C 224.5,219.167 224.5,202.833 224.5,186.5 Z"/></g>
<g><path style="opacity:1" fill="#f1662a" d="M 224.5,235.5 C 244.5,235.5 264.5,235.5 284.5,235.5C 283.279,256.928 281.279,278.261 278.5,299.5C 260.471,304.506 242.471,309.506 224.5,314.5C 224.5,288.167 224.5,261.833 224.5,235.5 Z"/></g>
<g><path style="opacity:1" fill="#ebeae9" d="M 224.5,314.5 C 224.5,331.5 224.5,348.5 224.5,365.5C 224.167,365.5 223.833,365.5 223.5,365.5C 190.086,356.646 156.752,347.48 123.5,338C 120.672,312.26 118.339,286.426 116.5,260.5C 133.167,260.5 149.833,260.5 166.5,260.5C 166.514,273.661 167.848,286.661 170.5,299.5C 188.521,304.516 206.521,309.516 224.5,314.5 Z"/></g>
</svg>
