<?xml version="1.0" encoding="UTF-8"?>
<!DOCTYPE svg PUBLIC "-//W3C//DTD SVG 1.1//EN" "http://www.w3.org/Graphics/SVG/1.1/DTD/svg11.dtd">
<svg xmlns="http://www.w3.org/2000/svg" version="1.1" width="256px" height="256px" style="shape-rendering:geometricPrecision; text-rendering:geometricPrecision; image-rendering:optimizeQuality; fill-rule:evenodd; clip-rule:evenodd" xmlns:xlink="http://www.w3.org/1999/xlink">
<g><path style="opacity:0.977" fill="#7f807f" d="M 40.5,-0.5 C 99.1667,-0.5 157.833,-0.5 216.5,-0.5C 231.891,-2.20567 243.724,3.46099 252,16.5C 253.847,21.8027 255.013,27.136 255.5,32.5C 255.5,95.8333 255.5,159.167 255.5,222.5C 255.059,239.945 246.393,250.945 229.5,255.5C 161.5,255.5 93.5,255.5 25.5,255.5C 15.7098,253.51 8.20978,248.177 3,239.5C 2.05751,236.626 0.890847,233.96 -0.5,231.5C -0.5,162.167 -0.5,92.8333 -0.5,23.5C 6.89273,4.965 20.5594,-3.035 40.5,-0.5 Z M 57.5,44.5 C 72.5754,42.5315 81.2421,49.0315 83.5,64C 80.3031,79.5963 70.9698,85.5963 55.5,82C 44.9864,76.4596 41.4864,67.9596 45,56.5C 47.769,50.8947 51.9356,46.8947 57.5,44.5 Z M 161.5,97.5 C 196.469,95.6366 212.969,112.303 211,147.5C 211.5,168.831 211.667,190.164 211.5,211.5C 200.167,211.5 188.833,211.5 177.5,211.5C 177.667,188.164 177.5,164.831 177,141.5C 172.432,129.797 163.932,125.297 151.5,128C 145.159,129.675 140.659,133.508 138,139.5C 136.54,163.448 136.04,187.448 136.5,211.5C 125.833,211.5 115.167,211.5 104.5,211.5C 104.5,174.5 104.5,137.5 104.5,100.5C 115.167,100.5 125.833,100.5 136.5,100.5C 136.334,105.511 136.501,110.511 137,115.5C 143.379,106.938 151.546,100.938 161.5,97.5 Z M 46.5,100.5 C 57.8333,100.5 69.1667,100.5 80.5,100.5C 80.5,137.5 80.5,174.5 80.5,211.5C 69.1667,211.5 57.8333,211.5 46.5,211.5C 46.5,174.5 46.5,137.5 46.5,100.5 Z"/></g>
</svg>
