<?xml version="1.0" encoding="UTF-8"?>
<!DOCTYPE svg PUBLIC "-//W3C//DTD SVG 1.1//EN" "http://www.w3.org/Graphics/SVG/1.1/DTD/svg11.dtd">
<svg xmlns="http://www.w3.org/2000/svg" version="1.1" width="512px" height="512px" style="shape-rendering:geometricPrecision; text-rendering:geometricPrecision; image-rendering:optimizeQuality; fill-rule:evenodd; clip-rule:evenodd" xmlns:xlink="http://www.w3.org/1999/xlink">
<g><path style="opacity:0.989" fill="#898989" d="M 23.5,100.5 C 22.3882,97.0536 20.0548,95.0536 16.5,94.5C 12.0603,90.3339 8.56027,85.3339 6,79.5C -2.12422,59.5002 -0.124216,40.5002 12,22.5C 28.4455,5.5776 48.2788,-0.255733 71.5,5C 94.7089,13.0551 107.376,29.3885 109.5,54C 106.232,93.3065 84.8985,111.64 45.5,109C 37.5049,107.617 30.1715,104.784 23.5,100.5 Z"/></g>
<g><path style="opacity:0.835" fill="#c8c8c8" d="M 16.5,94.5 C 20.0548,95.0536 22.3882,97.0536 23.5,100.5C 20.1451,99.6608 17.8118,97.6608 16.5,94.5 Z"/></g>
<g><path style="opacity:0.991" fill="#898989" d="M 366.5,159.5 C 442.463,156.871 488.63,192.538 505,266.5C 507.156,279.082 508.489,291.748 509,304.5C 509.823,372.528 509.657,440.528 508.5,508.5C 475.196,509.646 441.863,509.812 408.5,509C 407.584,508.626 406.75,508.126 406,507.5C 404.87,497.57 404.37,487.57 404.5,477.5C 405.448,420.5 405.281,363.5 404,306.5C 398.908,270.081 377.908,251.081 341,249.5C 300.299,253.203 278.966,275.536 277,316.5C 276.667,379.833 276.333,443.167 276,506.5C 275.097,507.701 273.931,508.535 272.5,509C 240.5,509.667 208.5,509.667 176.5,509C 174.939,508.682 173.772,507.849 173,506.5C 172.004,395.419 172.338,284.419 174,173.5C 207.428,172.338 240.928,172.171 274.5,173C 275,173.5 275.5,174 276,174.5C 276.167,187.513 276.667,200.513 277.5,213.5C 298.671,181.418 328.338,163.418 366.5,159.5 Z"/></g>
<g><path style="opacity:0.937" fill="#c8c8c8" d="M 108.5,175.5 C 75.165,175.333 41.8317,175.5 8.5,176C 8,176.5 7.5,177 7,177.5C 6.5,287.833 6.33333,398.166 6.5,508.5C 5.5,508.5 4.5,508.5 3.5,508.5C 3.33333,397.499 3.5,286.499 4,175.5C 4.5,175 5,174.5 5.5,174C 39.0294,173.823 72.5294,173.323 106,172.5C 107.749,172.748 108.582,173.748 108.5,175.5 Z"/></g>
<g><path style="opacity:1" fill="#898989" d="M 108.5,175.5 C 109.83,286.458 109.83,397.458 108.5,508.5C 74.5,508.5 40.5,508.5 6.5,508.5C 6.33333,398.166 6.5,287.833 7,177.5C 7.5,177 8,176.5 8.5,176C 41.8317,175.5 75.165,175.333 108.5,175.5 Z"/></g>
</svg>
