<?xml version="1.0" encoding="UTF-8"?>
<!DOCTYPE svg PUBLIC "-//W3C//DTD SVG 1.1//EN" "http://www.w3.org/Graphics/SVG/1.1/DTD/svg11.dtd">
<svg xmlns="http://www.w3.org/2000/svg" version="1.1" width="605px" height="605px" style="shape-rendering:geometricPrecision; text-rendering:geometricPrecision; image-rendering:optimizeQuality; fill-rule:evenodd; clip-rule:evenodd" xmlns:xlink="http://www.w3.org/1999/xlink">
<g><path style="opacity:0.043" fill="#0a0a0b" d="M 349.5,-0.5 C 351.167,-0.5 352.833,-0.5 354.5,-0.5C 350.136,2.11073 345.969,5.11073 342,8.5C 334.871,23.0623 329.038,38.0623 324.5,53.5C 321.203,63.1934 317.37,72.86 313,82.5C 310.692,90.9124 308.525,99.2457 306.5,107.5C 306.334,102.156 306.501,96.8229 307,91.5C 309.598,84.5385 312.098,77.5385 314.5,70.5C 315.167,70.1667 315.833,69.8333 316.5,69.5C 317.487,66.2317 317.82,62.8984 317.5,59.5C 318.5,59.5 319.5,59.5 320.5,59.5C 320.336,56.8127 320.503,54.146 321,51.5C 321.368,50.09 322.201,49.09 323.5,48.5C 324.474,46.2573 324.808,43.924 324.5,41.5C 325.5,41.5 326.5,41.5 327.5,41.5C 327.335,38.1501 327.502,34.8168 328,31.5C 329.011,30.6634 330.178,30.33 331.5,30.5C 331.335,27.4816 331.502,24.4816 332,21.5C 334.907,19.2666 336.074,16.2666 335.5,12.5C 336.5,12.5 337.5,12.5 338.5,12.5C 338.674,10.139 339.007,7.80562 339.5,5.5C 342.628,3.01287 345.962,1.01287 349.5,-0.5 Z"/></g>
<g><path style="opacity:0.983" fill="#808081" d="M 324.5,53.5 C 324.441,55.7645 325.274,56.0978 327,54.5C 328.059,54.6301 328.892,55.1301 329.5,56C 325.688,57.7973 325.521,59.9639 329,62.5C 329.333,61.8333 329.667,61.1667 330,60.5C 330.419,61.6721 331.085,62.6721 332,63.5C 332.347,61.8198 333.347,60.8198 335,60.5C 336.829,61.466 338.662,61.6327 340.5,61C 338.846,65.1545 336.346,68.6545 333,71.5C 332.667,70.5 332.333,69.5 332,68.5C 331.764,70.764 331.264,72.9307 330.5,75C 331.423,77.0408 331.756,79.2075 331.5,81.5C 329.473,81.3379 327.473,81.5045 325.5,82C 327.402,82.1992 328.902,83.0325 330,84.5C 330.728,87.2305 330.562,89.8971 329.5,92.5C 332.028,93.8159 332.028,94.9826 329.5,96C 332.95,96.8985 333.95,98.8985 332.5,102C 334.833,102.333 337.167,102.667 339.5,103C 338.663,104.011 338.33,105.178 338.5,106.5C 340.484,106.383 342.15,107.05 343.5,108.5C 345.263,107.046 346.597,107.38 347.5,109.5C 340.869,110.262 334.203,110.595 327.5,110.5C 327.854,112.541 327.854,114.374 327.5,116C 329.101,116.273 330.601,116.773 332,117.5C 332.333,117.167 332.667,116.833 333,116.5C 334.319,118.25 334.819,120.25 334.5,122.5C 335.978,122.238 337.311,122.571 338.5,123.5C 337.975,124.192 337.308,124.692 336.5,125C 338.35,127.018 340.35,128.851 342.5,130.5C 341.555,132.517 340.055,132.85 338,131.5C 336.11,131.215 334.777,130.215 334,128.5C 333.282,129.451 332.449,129.617 331.5,129C 332.833,128.333 332.833,127.667 331.5,127C 329.783,126.039 328.116,125.372 326.5,125C 327.127,127.343 328.127,129.51 329.5,131.5C 328.895,133.964 327.895,136.631 326.5,139.5C 327.574,140.08 328.574,139.58 329.5,138C 331.879,137.386 334.212,137.053 336.5,137C 337.654,137.914 337.487,138.747 336,139.5C 334.982,138.294 334.482,138.627 334.5,140.5C 335.762,143.022 336.429,145.689 336.5,148.5C 334.833,148.5 333.167,148.5 331.5,148.5C 331.284,150.681 332.117,152.347 334,153.5C 335.401,151.808 337.234,151.141 339.5,151.5C 339.281,152.675 339.614,153.675 340.5,154.5C 341.132,152.263 342.465,150.597 344.5,149.5C 343.624,148.749 342.624,148.249 341.5,148C 342.428,147.612 343.095,146.945 343.5,146C 342.66,144.829 341.827,143.662 341,142.5C 339.989,143.337 338.822,143.67 337.5,143.5C 337.5,142.5 337.5,141.5 337.5,140.5C 340.421,140.146 342.754,141.146 344.5,143.5C 344.677,140.922 345.843,140.922 348,143.5C 348.29,141.956 348.956,140.623 350,139.5C 350.833,141.5 351.667,143.5 352.5,145.5C 353.854,143.816 355.521,143.316 357.5,144C 357.982,145.008 358.148,146.175 358,147.5C 359.02,146.109 359.853,144.609 360.5,143C 357.751,142.636 355.751,141.303 354.5,139C 355.102,137.437 355.935,137.604 357,139.5C 357.75,138.874 358.584,138.374 359.5,138C 357.519,137.395 357.185,136.395 358.5,135C 357.209,132.728 356.543,130.561 356.5,128.5C 359.447,127.679 362.447,127.179 365.5,127C 366.543,125.024 367.877,124.524 369.5,125.5C 370.9,123.218 370.234,121.718 367.5,121C 371.042,120.562 374.709,120.562 378.5,121C 377.315,119.647 375.981,118.48 374.5,117.5C 375.76,116.618 376.926,115.618 378,114.5C 378.741,115.641 379.575,115.641 380.5,114.5C 381.318,117.107 381.818,119.774 382,122.5C 384.504,121.731 387.337,120.897 390.5,120C 388.842,119.275 388.342,118.108 389,116.5C 390.789,114.771 392.956,114.104 395.5,114.5C 395.247,116.827 395.914,118.827 397.5,120.5C 399.164,119.777 400.831,120.11 402.5,121.5C 404.028,120.139 405.695,118.972 407.5,118C 406.429,115.724 404.429,113.891 401.5,112.5C 403.655,111.072 405.821,110.739 408,111.5C 408.374,110.584 408.874,109.75 409.5,109C 406.475,108.846 404.809,107.346 404.5,104.5C 406.484,104.383 408.15,105.05 409.5,106.5C 410.483,102.971 409.15,100.471 405.5,99C 406.308,98.6924 406.975,98.1924 407.5,97.5C 407.925,95.8507 407.925,94.0174 407.5,92C 408.025,91.3076 408.692,90.8076 409.5,90.5C 410.324,93.7848 410.824,97.1182 411,100.5C 412.297,99.2164 413.464,99.3831 414.5,101C 413.151,102.635 413.318,104.135 415,105.5C 415,101.073 416.167,100.573 418.5,104C 416.027,105.402 416.027,106.902 418.5,108.5C 419.478,108.023 420.311,107.357 421,106.5C 421.75,107.126 422.584,107.626 423.5,108C 420.7,109.232 417.7,109.899 414.5,110C 415.641,110.741 415.641,111.575 414.5,112.5C 415.628,113.262 416.795,113.929 418,114.5C 419.049,113.483 420.216,113.316 421.5,114C 421.167,114.333 420.833,114.667 420.5,115C 421.264,117.069 421.764,119.236 422,121.5C 423.458,120.253 424.958,120.253 426.5,121.5C 428.472,120.695 429.972,119.361 431,117.5C 431.419,118.672 432.085,119.672 433,120.5C 433.399,120.272 433.565,119.938 433.5,119.5C 434.804,120.987 435.97,122.654 437,124.5C 437.333,129.167 437.667,133.833 438,138.5C 443.025,147.661 446.692,157.328 449,167.5C 455.85,178.403 460.517,190.069 463,202.5C 468.396,210.201 471.062,218.868 471,228.5C 473,232.5 475,236.5 477,240.5C 479.414,249.903 482.081,259.236 485,268.5C 488.3,274.48 491.634,280.48 495,286.5C 495.333,289.167 495.667,291.833 496,294.5C 497.886,298.725 499.719,303.058 501.5,307.5C 502.329,312.467 502.829,317.467 503,322.5C 504.946,325.139 505.946,328.139 506,331.5C 508,334.167 510,336.833 512,339.5C 514.428,349.653 518.095,359.319 523,368.5C 523.346,371.576 524.012,374.576 525,377.5C 526.576,380.186 528.409,382.52 530.5,384.5C 530.833,385.167 531.167,385.833 531.5,386.5C 531.768,388.099 531.434,389.432 530.5,390.5C 530.75,392.674 531.75,394.341 533.5,395.5C 534.52,405.447 536.52,415.114 539.5,424.5C 536.887,427.143 535.053,426.476 534,422.5C 533.5,424 533,425.5 532.5,427C 533.682,434.711 533.682,442.545 532.5,450.5C 531.5,450.5 530.5,450.5 529.5,450.5C 528.605,457.057 527.605,457.057 526.5,450.5C 524.167,451.833 521.833,451.833 519.5,450.5C 518.246,453.25 517.746,455.917 518,458.5C 515.297,460.548 512.464,462.382 509.5,464C 510.701,464.903 511.535,466.069 512,467.5C 512.333,466.833 512.667,466.167 513,465.5C 516.455,468.618 515.788,470.618 511,471.5C 508.48,475.439 509.313,478.439 513.5,480.5C 511.336,481.414 509.336,482.581 507.5,484C 507.833,484.333 508.167,484.667 508.5,485C 507.043,488.194 506.043,491.527 505.5,495C 507.218,495.346 508.885,495.846 510.5,496.5C 511.308,496.192 511.975,495.692 512.5,495C 511.383,493.108 509.716,492.275 507.5,492.5C 507.693,487.986 509.86,486.653 514,488.5C 515.028,492.389 514.195,495.723 511.5,498.5C 513.924,500.714 513.257,501.714 509.5,501.5C 509.649,500.448 509.483,499.448 509,498.5C 507.649,500.019 506.149,501.352 504.5,502.5C 505.274,503.711 506.107,503.711 507,502.5C 507.667,503.167 507.667,503.833 507,504.5C 505.575,505.212 504.075,505.379 502.5,505C 501.18,507.317 499.514,509.317 497.5,511C 498.833,512 498.833,513 497.5,514C 498.364,515.137 499.364,516.47 500.5,518C 498.183,519.713 496.183,519.213 494.5,516.5C 494.36,517.569 494.36,518.736 494.5,520C 492.038,521.836 490.538,521.003 490,517.5C 489.333,518.833 488.667,518.833 488,517.5C 487.316,516.216 487.483,515.049 488.5,514C 486.893,514.019 485.226,514.185 483.5,514.5C 483.78,511.612 482.447,510.112 479.5,510C 478.547,508.045 477.213,506.378 475.5,505C 472.419,503.877 469.753,502.211 467.5,500C 466.216,499.316 465.049,499.483 464,500.5C 462.826,495.011 459.826,491.678 455,490.5C 454.667,491.167 454.333,491.833 454,492.5C 453.581,491.328 452.915,490.328 452,489.5C 450.274,490.576 448.441,490.743 446.5,490C 444.5,487.667 442.5,485.333 440.5,483C 439.563,482.308 438.897,482.475 438.5,483.5C 436.717,478.888 433.384,475.721 428.5,474C 423.99,468.448 418.324,465.114 411.5,464C 402.74,454.129 392.406,446.463 380.5,441C 377.5,438 374.5,435 371.5,432C 367.833,431.667 364.167,431.333 360.5,431C 355.615,428.391 350.615,426.057 345.5,424C 342.042,419.768 337.708,416.768 332.5,415C 326.226,414.026 320.56,411.693 315.5,408C 312.247,406.964 308.914,406.297 305.5,406C 305.002,404.842 304.169,404.009 303,403.5C 298.404,403.254 294.238,402.254 290.5,400.5C 280.526,398.751 270.526,398.418 260.5,399.5C 260.167,399.5 259.833,399.5 259.5,399.5C 258.833,399.167 258.167,398.833 257.5,398.5C 257.5,397.5 257.5,396.5 257.5,395.5C 236.164,395.333 214.831,395.5 193.5,396C 192.663,397.011 192.33,398.178 192.5,399.5C 183.143,399.168 173.81,399.502 164.5,400.5C 164.291,401.086 163.957,401.586 163.5,402C 161.167,402.333 158.833,402.667 156.5,403C 152.167,405.333 147.833,407.667 143.5,410C 132.194,412.294 122.527,417.628 114.5,426C 111.97,426.891 109.637,428.058 107.5,429.5C 107.423,428.25 106.756,427.417 105.5,427C 106.357,426.311 107.023,425.478 107.5,424.5C 106.066,422.78 105.233,420.78 105,418.5C 103.969,421.539 102.135,424.039 99.5,426C 98.5165,426.591 97.8499,426.257 97.5,425C 98.5202,422.974 100.187,421.641 102.5,421C 100.893,419.951 100.227,418.451 100.5,416.5C 102.911,416.863 104.411,415.863 105,413.5C 106.908,416.332 107.741,415.999 107.5,412.5C 108.822,412.33 109.989,412.663 111,413.5C 111.202,411.744 111.702,410.078 112.5,408.5C 113.72,409.711 114.887,409.711 116,408.5C 116.604,410.686 117.77,410.852 119.5,409C 118.241,408.077 116.908,407.243 115.5,406.5C 117.287,405.684 118.954,404.684 120.5,403.5C 121.167,404.5 121.833,405.5 122.5,406.5C 123.458,404.376 124.625,402.376 126,400.5C 128.78,399.862 130.947,398.362 132.5,396C 135.124,396.65 137.791,396.483 140.5,395.5C 140.649,394.448 140.483,393.448 140,392.5C 138.869,393.604 138.035,393.271 137.5,391.5C 139.837,390.399 142.504,390.232 145.5,391C 141.93,390.411 141.596,389.077 144.5,387C 143.978,386.05 143.311,385.216 142.5,384.5C 144.179,383.218 146.013,382.218 148,381.5C 148.5,382 149,382.5 149.5,383C 146.93,386.173 147.097,389.34 150,392.5C 151.171,391.107 152.671,390.273 154.5,390C 150.787,388.837 150.787,387.337 154.5,385.5C 156.134,385.968 157.3,386.968 158,388.5C 161.679,387.395 165.179,385.895 168.5,384C 170.899,383.289 173.232,383.456 175.5,384.5C 175.94,383.302 176.273,382.135 176.5,381C 175.167,380.667 173.833,380.333 172.5,380C 174.696,378.778 176.196,376.944 177,374.5C 179.28,375.086 181.447,375.92 183.5,377C 182.529,378.204 181.529,378.704 180.5,378.5C 181,378.833 181.5,379.167 182,379.5C 184.185,378.242 186.352,378.242 188.5,379.5C 189.262,378.372 189.929,377.205 190.5,376C 192.402,375.801 193.902,374.967 195,373.5C 196.587,374.727 197.921,374.394 199,372.5C 199.667,373.167 200.333,373.833 201,374.5C 203.097,374.306 205.263,374.306 207.5,374.5C 208.298,372.922 208.798,371.256 209,369.5C 210.085,372.817 211.585,373.151 213.5,370.5C 209.665,368.837 209.999,368.337 214.5,369C 215,369.5 215.5,370 216,370.5C 218.518,366.395 217.684,365.062 213.5,366.5C 213.5,365.5 213.5,364.5 213.5,363.5C 214.822,363.33 215.989,363.663 217,364.5C 217.662,360.246 219.495,359.58 222.5,362.5C 225.471,360.032 228.471,357.699 231.5,355.5C 231.167,355.167 230.833,354.833 230.5,354.5C 229.672,355.415 228.672,356.081 227.5,356.5C 225.5,355.167 223.5,355.167 221.5,356.5C 219.374,356.27 217.707,355.27 216.5,353.5C 215.167,354.833 213.833,354.833 212.5,353.5C 211.707,354.355 212.04,355.189 213.5,356C 214.448,356.483 215.448,356.649 216.5,356.5C 215.968,359.248 214.968,361.248 213.5,362.5C 211.833,362.5 210.167,362.5 208.5,362.5C 208.5,360.5 208.5,358.5 208.5,356.5C 207.5,356.5 206.5,356.5 205.5,356.5C 205.722,351.055 203.722,350.055 199.5,353.5C 200.376,354.251 201.376,354.751 202.5,355C 202,355.5 201.5,356 201,356.5C 198.832,354.545 196.498,353.879 194,354.5C 191.436,352.923 188.603,351.923 185.5,351.5C 184.548,353.045 184.215,354.712 184.5,356.5C 186.819,355.833 189.153,355.666 191.5,356C 189.649,356.837 187.816,357.671 186,358.5C 185.51,359.793 185.343,361.127 185.5,362.5C 184.167,362.5 182.833,362.5 181.5,362.5C 181.244,360.208 181.577,358.041 182.5,356C 182,355.833 181.5,355.667 181,355.5C 179.325,357.38 177.658,359.38 176,361.5C 175.217,359.567 175.717,358.067 177.5,357C 174.196,357.041 170.863,357.374 167.5,358C 164.999,359.673 162.666,361.507 160.5,363.5C 159.833,363.167 159.167,362.833 158.5,362.5C 161.224,360.334 162.724,357.667 163,354.5C 162.3,356.032 161.134,357.032 159.5,357.5C 158.614,358.325 158.281,359.325 158.5,360.5C 157.5,360.5 156.5,360.5 155.5,360.5C 155.719,359.325 155.386,358.325 154.5,357.5C 153.833,358.833 153.167,360.167 152.5,361.5C 149.669,359.871 147.335,360.371 145.5,363C 143.866,363.494 142.199,363.66 140.5,363.5C 140.649,364.552 140.483,365.552 140,366.5C 136.46,364.495 132.627,363.161 128.5,362.5C 125.457,364.615 122.124,365.948 118.5,366.5C 118.5,365.5 118.5,364.5 118.5,363.5C 117.022,363.238 115.689,363.571 114.5,364.5C 112.578,365.96 111.911,367.627 112.5,369.5C 111.673,367.838 110.507,366.505 109,365.5C 108.689,366.742 109.189,367.742 110.5,368.5C 107.403,369.194 107.069,370.194 109.5,371.5C 110.687,370.106 111.354,370.273 111.5,372C 109.873,375.299 108.373,375.132 107,371.5C 104.828,372.585 102.828,373.919 101,375.5C 100.692,374.692 100.192,374.025 99.5,373.5C 98.7568,374.908 97.9234,376.241 97,377.5C 96.7479,375.069 97.2479,372.735 98.5,370.5C 98.1667,370.167 97.8333,369.833 97.5,369.5C 96.8333,370.833 96.1667,372.167 95.5,373.5C 94.3247,372.145 93.3247,372.312 92.5,374C 93.6678,375.871 93.1678,377.371 91,378.5C 90.586,378.043 90.086,377.709 89.5,377.5C 88.7189,378.729 88.2189,380.062 88,381.5C 86.3905,382.147 84.8905,382.98 83.5,384C 78.4556,384.224 78.289,383.391 83,381.5C 84.1871,379.956 84.5205,378.289 84,376.5C 83,378.167 82,379.833 81,381.5C 77.5752,377.947 75.4086,378.947 74.5,384.5C 76.4233,385.308 78.4233,385.808 80.5,386C 77.7466,387.559 75.0799,389.393 72.5,391.5C 68.53,389.608 68.8634,388.608 73.5,388.5C 73.9727,382.268 73.1393,381.601 71,386.5C 70.7605,384.239 70.5938,382.239 70.5,380.5C 68.9755,382.483 67.9755,384.816 67.5,387.5C 65.8773,386.509 64.8773,387.176 64.5,389.5C 63.3717,390.262 62.2051,390.929 61,391.5C 60.5078,390.451 60.6744,389.451 61.5,388.5C 60.2402,387.618 59.0736,386.618 58,385.5C 57.3828,384.551 57.5494,383.718 58.5,383C 57.9056,382.536 57.2389,382.369 56.5,382.5C 60.7634,379.019 65.0968,375.519 69.5,372C 82.7774,364.241 96.4441,357.241 110.5,351C 111.833,349.667 113.167,348.333 114.5,347C 121.847,345.156 128.847,342.49 135.5,339C 138.5,338.667 141.5,338.333 144.5,338C 146.221,336.473 148.221,335.473 150.5,335C 164.628,333.872 178.628,332.539 192.5,331C 193.167,330 193.833,329 194.5,328C 216.497,327.5 238.497,327.333 260.5,327.5C 260.539,328.583 260.873,329.583 261.5,330.5C 268.5,331.167 275.5,331.833 282.5,332.5C 282.709,333.086 283.043,333.586 283.5,334C 291.216,334.199 298.882,334.699 306.5,335.5C 309.464,333.879 311.464,334.712 312.5,338C 323.76,339.179 334.093,342.846 343.5,349C 345.833,349.333 348.167,349.667 350.5,350C 353.763,351.572 356.763,353.572 359.5,356C 362.04,357.111 364.54,357.278 367,356.5C 370.322,359.903 374.155,362.403 378.5,364C 379.5,365 380.5,366 381.5,367C 392.852,367.941 402.518,372.608 410.5,381C 414.612,382.095 417.945,384.428 420.5,388C 422.167,388.333 423.833,388.667 425.5,389C 431.139,392.626 436.806,396.292 442.5,400C 451.576,407.03 460.576,414.197 469.5,421.5C 470.631,419.926 470.798,418.259 470,416.5C 466.667,409.833 463.333,403.167 460,396.5C 458.122,390.958 456.788,385.291 456,379.5C 453.446,372.061 450.113,365.061 446,358.5C 445.667,355.833 445.333,353.167 445,350.5C 443.133,345.069 440.966,339.736 438.5,334.5C 435.991,324.146 433.158,313.813 430,303.5C 428.333,301.5 426.667,299.5 425,297.5C 423.195,290.786 421.195,284.12 419,277.5C 415.144,271.219 412.144,264.553 410,257.5C 407.539,246.227 404.705,235.061 401.5,224C 399.385,217.649 396.885,211.483 394,205.5C 392.541,202.088 390.541,199.088 388,196.5C 387.667,193.833 387.333,191.167 387,188.5C 382.802,178.24 378.802,167.907 375,157.5C 374.258,151.789 373.258,146.122 372,140.5C 370.333,139.167 368.667,139.167 367,140.5C 365.978,147.869 363.312,154.536 359,160.5C 355.852,169.677 353.018,179.011 350.5,188.5C 348.103,191.727 346.936,195.394 347,199.5C 341.625,208.362 339.292,218.029 340,228.5C 335.598,235.306 332.265,242.639 330,250.5C 329.667,254.167 329.333,257.833 329,261.5C 325.004,266.83 322.67,272.83 322,279.5C 321.333,280.167 320.667,280.833 320,281.5C 317.182,293.288 313.182,304.622 308,315.5C 301.223,316.811 294.39,316.811 287.5,315.5C 287.023,314.522 286.357,313.689 285.5,313C 276.5,312.667 267.5,312.333 258.5,312C 257.833,311.333 257.167,310.667 256.5,310C 252.179,309.501 247.846,309.334 243.5,309.5C 243.309,304.101 243.809,298.767 245,293.5C 249.581,282.833 252.748,271.833 254.5,260.5C 255.167,260.5 255.5,260.167 255.5,259.5C 256.458,259.047 257.292,258.381 258,257.5C 260.939,248.015 264.273,238.681 268,229.5C 272.599,215.77 276.266,201.77 279,187.5C 289.543,162.038 298.376,136.038 305.5,109.5C 305.833,108.833 306.167,108.167 306.5,107.5C 308.525,99.2457 310.692,90.9124 313,82.5C 317.37,72.86 321.203,63.1934 324.5,53.5 Z"/></g>
<g><path style="opacity:1" fill="#848384" d="M 354.5,-0.5 C 361.5,-0.5 368.5,-0.5 375.5,-0.5C 385.511,3.98484 394.011,10.6515 401,19.5C 400.652,23.8867 401.986,27.5534 405,30.5C 405.333,35.1667 405.667,39.8333 406,44.5C 407.916,47.8984 408.916,51.5651 409,55.5C 412.703,60.5766 415.036,66.2432 416,72.5C 417.935,75.3707 419.601,78.3707 421,81.5C 422.46,88.396 424.46,95.0627 427,101.5C 430.475,107.098 432.642,113.098 433.5,119.5C 433.565,119.938 433.399,120.272 433,120.5C 432.085,119.672 431.419,118.672 431,117.5C 429.972,119.361 428.472,120.695 426.5,121.5C 424.958,120.253 423.458,120.253 422,121.5C 421.764,119.236 421.264,117.069 420.5,115C 420.833,114.667 421.167,114.333 421.5,114C 420.216,113.316 419.049,113.483 418,114.5C 416.795,113.929 415.628,113.262 414.5,112.5C 415.641,111.575 415.641,110.741 414.5,110C 417.7,109.899 420.7,109.232 423.5,108C 422.584,107.626 421.75,107.126 421,106.5C 420.311,107.357 419.478,108.023 418.5,108.5C 416.027,106.902 416.027,105.402 418.5,104C 416.167,100.573 415,101.073 415,105.5C 413.318,104.135 413.151,102.635 414.5,101C 413.464,99.3831 412.297,99.2164 411,100.5C 410.824,97.1182 410.324,93.7848 409.5,90.5C 408.692,90.8076 408.025,91.3076 407.5,92C 407.925,94.0174 407.925,95.8507 407.5,97.5C 406.975,98.1924 406.308,98.6924 405.5,99C 409.15,100.471 410.483,102.971 409.5,106.5C 408.15,105.05 406.484,104.383 404.5,104.5C 404.809,107.346 406.475,108.846 409.5,109C 408.874,109.75 408.374,110.584 408,111.5C 405.821,110.739 403.655,111.072 401.5,112.5C 404.429,113.891 406.429,115.724 407.5,118C 405.695,118.972 404.028,120.139 402.5,121.5C 400.831,120.11 399.164,119.777 397.5,120.5C 395.914,118.827 395.247,116.827 395.5,114.5C 392.956,114.104 390.789,114.771 389,116.5C 388.342,118.108 388.842,119.275 390.5,120C 387.337,120.897 384.504,121.731 382,122.5C 381.818,119.774 381.318,117.107 380.5,114.5C 379.575,115.641 378.741,115.641 378,114.5C 376.926,115.618 375.76,116.618 374.5,117.5C 375.981,118.48 377.315,119.647 378.5,121C 374.709,120.562 371.042,120.562 367.5,121C 370.234,121.718 370.9,123.218 369.5,125.5C 367.877,124.524 366.543,125.024 365.5,127C 362.447,127.179 359.447,127.679 356.5,128.5C 356.543,130.561 357.209,132.728 358.5,135C 357.185,136.395 357.519,137.395 359.5,138C 358.584,138.374 357.75,138.874 357,139.5C 355.935,137.604 355.102,137.437 354.5,139C 355.751,141.303 357.751,142.636 360.5,143C 359.853,144.609 359.02,146.109 358,147.5C 358.148,146.175 357.982,145.008 357.5,144C 355.521,143.316 353.854,143.816 352.5,145.5C 351.667,143.5 350.833,141.5 350,139.5C 348.956,140.623 348.29,141.956 348,143.5C 345.843,140.922 344.677,140.922 344.5,143.5C 342.754,141.146 340.421,140.146 337.5,140.5C 337.5,141.5 337.5,142.5 337.5,143.5C 338.822,143.67 339.989,143.337 341,142.5C 341.827,143.662 342.66,144.829 343.5,146C 343.095,146.945 342.428,147.612 341.5,148C 342.624,148.249 343.624,148.749 344.5,149.5C 342.465,150.597 341.132,152.263 340.5,154.5C 339.614,153.675 339.281,152.675 339.5,151.5C 337.234,151.141 335.401,151.808 334,153.5C 332.117,152.347 331.284,150.681 331.5,148.5C 333.167,148.5 334.833,148.5 336.5,148.5C 336.429,145.689 335.762,143.022 334.5,140.5C 334.482,138.627 334.982,138.294 336,139.5C 337.487,138.747 337.654,137.914 336.5,137C 334.212,137.053 331.879,137.386 329.5,138C 328.574,139.58 327.574,140.08 326.5,139.5C 327.895,136.631 328.895,133.964 329.5,131.5C 328.127,129.51 327.127,127.343 326.5,125C 328.116,125.372 329.783,126.039 331.5,127C 332.833,127.667 332.833,128.333 331.5,129C 332.449,129.617 333.282,129.451 334,128.5C 334.777,130.215 336.11,131.215 338,131.5C 340.055,132.85 341.555,132.517 342.5,130.5C 340.35,128.851 338.35,127.018 336.5,125C 337.308,124.692 337.975,124.192 338.5,123.5C 337.311,122.571 335.978,122.238 334.5,122.5C 334.819,120.25 334.319,118.25 333,116.5C 332.667,116.833 332.333,117.167 332,117.5C 330.601,116.773 329.101,116.273 327.5,116C 327.854,114.374 327.854,112.541 327.5,110.5C 334.203,110.595 340.869,110.262 347.5,109.5C 346.597,107.38 345.263,107.046 343.5,108.5C 342.15,107.05 340.484,106.383 338.5,106.5C 338.33,105.178 338.663,104.011 339.5,103C 337.167,102.667 334.833,102.333 332.5,102C 333.95,98.8985 332.95,96.8985 329.5,96C 332.028,94.9826 332.028,93.8159 329.5,92.5C 330.562,89.8971 330.728,87.2305 330,84.5C 328.902,83.0325 327.402,82.1992 325.5,82C 327.473,81.5045 329.473,81.3379 331.5,81.5C 331.756,79.2075 331.423,77.0408 330.5,75C 331.264,72.9307 331.764,70.764 332,68.5C 332.333,69.5 332.667,70.5 333,71.5C 336.346,68.6545 338.846,65.1545 340.5,61C 338.662,61.6327 336.829,61.466 335,60.5C 333.347,60.8198 332.347,61.8198 332,63.5C 331.085,62.6721 330.419,61.6721 330,60.5C 329.667,61.1667 329.333,61.8333 329,62.5C 325.521,59.9639 325.688,57.7973 329.5,56C 328.892,55.1301 328.059,54.6301 327,54.5C 325.274,56.0978 324.441,55.7645 324.5,53.5C 329.038,38.0623 334.871,23.0623 342,8.5C 345.969,5.11073 350.136,2.11073 354.5,-0.5 Z"/></g>
<g><path style="opacity:0.035" fill="#090909" d="M 305.5,109.5 C 298.376,136.038 289.543,162.038 279,187.5C 276.266,201.77 272.599,215.77 268,229.5C 264.273,238.681 260.939,248.015 258,257.5C 257.292,258.381 256.458,259.047 255.5,259.5C 255.336,256.813 255.503,254.146 256,251.5C 258.896,248.546 260.229,244.879 260,240.5C 261.011,239.663 262.178,239.33 263.5,239.5C 263.335,236.15 263.502,232.817 264,229.5C 266.092,226.627 267.092,223.293 267,219.5C 269.896,216.546 271.229,212.879 271,208.5C 271.414,208.043 271.914,207.709 272.5,207.5C 273.56,198.178 275.394,189.178 278,180.5C 278.689,179.643 279.522,178.977 280.5,178.5C 283.031,172.902 284.698,166.902 285.5,160.5C 286.167,160.167 286.833,159.833 287.5,159.5C 288.487,156.232 288.82,152.898 288.5,149.5C 289.5,149.5 290.5,149.5 291.5,149.5C 291.337,147.143 291.503,144.81 292,142.5C 292.196,140.714 293.029,139.381 294.5,138.5C 295.318,135.893 295.818,133.226 296,130.5C 299.118,127.93 300.285,124.596 299.5,120.5C 300.5,120.5 301.5,120.5 302.5,120.5C 302.335,117.15 302.502,113.817 303,110.5C 303.671,109.748 304.504,109.414 305.5,109.5 Z"/></g>
<g><path style="opacity:0.049" fill="#0d0c0c" d="M 260.5,327.5 C 261.289,327.783 261.956,328.283 262.5,329C 270.159,329.5 277.826,329.666 285.5,329.5C 285.5,330.5 285.5,331.5 285.5,332.5C 294.873,332.248 304.207,332.582 313.5,333.5C 313.5,334.5 313.5,335.5 313.5,336.5C 317.182,336.335 320.848,336.501 324.5,337C 330.662,339.252 336.662,341.752 342.5,344.5C 342.833,345.167 343.167,345.833 343.5,346.5C 346.768,347.487 350.102,347.82 353.5,347.5C 353.5,348.5 353.5,349.5 353.5,350.5C 358.602,352.309 363.936,353.809 369.5,355C 370.988,356.717 372.821,357.884 375,358.5C 375.483,359.448 375.649,360.448 375.5,361.5C 377.833,361.5 380.167,361.5 382.5,361.5C 382.5,362.833 382.5,364.167 382.5,365.5C 386.514,365.334 390.514,365.501 394.5,366C 399.594,369.769 404.927,373.103 410.5,376C 411.337,377.011 411.67,378.178 411.5,379.5C 413.527,379.338 415.527,379.505 417.5,380C 418.337,381.011 418.67,382.178 418.5,383.5C 419.833,383.5 421.167,383.5 422.5,383.5C 422.5,384.5 422.5,385.5 422.5,386.5C 424.527,386.338 426.527,386.505 428.5,387C 429.337,388.011 429.67,389.178 429.5,390.5C 434.076,390.723 437.742,392.723 440.5,396.5C 442.078,397.298 443.744,397.798 445.5,398C 448.167,400.719 451,403.219 454,405.5C 454.483,406.448 454.649,407.448 454.5,408.5C 458.639,407.704 461.805,409.037 464,412.5C 462.03,408.995 461.197,404.995 461.5,400.5C 460.5,400.5 459.5,400.5 458.5,400.5C 458.112,397.121 457.445,393.788 456.5,390.5C 454.562,386.569 452.729,382.569 451,378.5C 450.502,375.518 450.335,372.518 450.5,369.5C 449.178,369.67 448.011,369.337 447,368.5C 446.503,366.19 446.337,363.857 446.5,361.5C 445.5,361.5 444.5,361.5 443.5,361.5C 444.268,356.779 443.101,352.779 440,349.5C 439.667,346.833 439.333,344.167 439,341.5C 438.333,340.833 437.667,340.167 437,339.5C 436.036,335.204 435.203,330.87 434.5,326.5C 433.914,326.291 433.414,325.957 433,325.5C 432.502,322.183 432.335,318.85 432.5,315.5C 431.178,315.67 430.011,315.337 429,314.5C 428.502,311.183 428.335,307.85 428.5,304.5C 427.5,304.5 426.5,304.5 425.5,304.5C 426.111,301.039 424.944,298.372 422,296.5C 421.667,294.167 421.333,291.833 421,289.5C 418.702,285.933 416.702,282.266 415,278.5C 414.667,276.167 414.333,273.833 414,271.5C 411.702,267.933 409.702,264.266 408,260.5C 407.502,257.183 407.335,253.85 407.5,250.5C 406.178,250.67 405.011,250.337 404,249.5C 404.286,243.599 402.953,238.266 400,233.5C 400.057,230.028 399.057,227.028 397,224.5C 396.502,221.183 396.335,217.85 396.5,214.5C 395.167,214.5 393.833,214.5 392.5,214.5C 390.846,209.403 389.512,204.069 388.5,198.5C 387.201,197.91 386.368,196.91 386,195.5C 385.781,191.39 384.447,187.723 382,184.5C 381.505,182.527 381.338,180.527 381.5,178.5C 380.5,178.5 379.5,178.5 378.5,178.5C 378.663,176.143 378.497,173.81 378,171.5C 375.693,167.274 373.693,162.941 372,158.5C 371.501,153.177 371.334,147.844 371.5,142.5C 370.5,142.5 369.5,142.5 368.5,142.5C 368.663,144.857 368.497,147.19 368,149.5C 367.804,151.286 366.971,152.619 365.5,153.5C 364.526,155.743 364.192,158.076 364.5,160.5C 363.5,160.5 362.5,160.5 361.5,160.5C 361.664,163.187 361.497,165.854 361,168.5C 358.172,172.243 356.839,176.576 357,181.5C 355.989,182.337 354.822,182.67 353.5,182.5C 353.665,185.85 353.498,189.183 353,192.5C 350.908,195.373 349.908,198.707 350,202.5C 348.989,203.337 347.822,203.67 346.5,203.5C 344.538,215.484 342.205,227.484 339.5,239.5C 338.167,239.5 336.833,239.5 335.5,239.5C 335.5,243.167 335.5,246.833 335.5,250.5C 334.5,250.5 333.5,250.5 332.5,250.5C 332.665,253.85 332.498,257.183 332,260.5C 331.167,261.5 330.333,262.5 329.5,263.5C 328.102,268.578 326.602,273.578 325,278.5C 322.12,282.623 320.786,287.29 321,292.5C 319.989,293.337 318.822,293.67 317.5,293.5C 317.665,296.85 317.498,300.183 317,303.5C 315.048,305.337 314.048,307.671 314,310.5C 312.989,311.337 311.822,311.67 310.5,311.5C 310.768,314.119 310.435,316.619 309.5,319C 302.167,319.667 294.833,319.667 287.5,319C 286.09,318.632 285.09,317.799 284.5,316.5C 276.187,315.668 267.853,315.168 259.5,315C 258.167,314.333 257.167,313.333 256.5,312C 251.511,311.501 246.511,311.334 241.5,311.5C 241.334,304.825 241.5,298.158 242,291.5C 242.689,290.643 243.522,289.977 244.5,289.5C 245.455,283.185 246.955,277.185 249,271.5C 251.384,268.016 253.218,264.35 254.5,260.5C 252.748,271.833 249.581,282.833 245,293.5C 243.809,298.767 243.309,304.101 243.5,309.5C 247.846,309.334 252.179,309.501 256.5,310C 257.167,310.667 257.833,311.333 258.5,312C 267.5,312.333 276.5,312.667 285.5,313C 286.357,313.689 287.023,314.522 287.5,315.5C 294.39,316.811 301.223,316.811 308,315.5C 313.182,304.622 317.182,293.288 320,281.5C 320.667,280.833 321.333,280.167 322,279.5C 322.67,272.83 325.004,266.83 329,261.5C 329.333,257.833 329.667,254.167 330,250.5C 332.265,242.639 335.598,235.306 340,228.5C 339.292,218.029 341.625,208.362 347,199.5C 346.936,195.394 348.103,191.727 350.5,188.5C 353.018,179.011 355.852,169.677 359,160.5C 363.312,154.536 365.978,147.869 367,140.5C 368.667,139.167 370.333,139.167 372,140.5C 373.258,146.122 374.258,151.789 375,157.5C 378.802,167.907 382.802,178.24 387,188.5C 387.333,191.167 387.667,193.833 388,196.5C 390.541,199.088 392.541,202.088 394,205.5C 396.885,211.483 399.385,217.649 401.5,224C 404.705,235.061 407.539,246.227 410,257.5C 412.144,264.553 415.144,271.219 419,277.5C 421.195,284.12 423.195,290.786 425,297.5C 426.667,299.5 428.333,301.5 430,303.5C 433.158,313.813 435.991,324.146 438.5,334.5C 440.966,339.736 443.133,345.069 445,350.5C 445.333,353.167 445.667,355.833 446,358.5C 450.113,365.061 453.446,372.061 456,379.5C 456.788,385.291 458.122,390.958 460,396.5C 463.333,403.167 466.667,409.833 470,416.5C 470.798,418.259 470.631,419.926 469.5,421.5C 460.576,414.197 451.576,407.03 442.5,400C 436.806,396.292 431.139,392.626 425.5,389C 423.833,388.667 422.167,388.333 420.5,388C 417.945,384.428 414.612,382.095 410.5,381C 402.518,372.608 392.852,367.941 381.5,367C 380.5,366 379.5,365 378.5,364C 374.155,362.403 370.322,359.903 367,356.5C 364.54,357.278 362.04,357.111 359.5,356C 356.763,353.572 353.763,351.572 350.5,350C 348.167,349.667 345.833,349.333 343.5,349C 334.093,342.846 323.76,339.179 312.5,338C 311.464,334.712 309.464,333.879 306.5,335.5C 298.882,334.699 291.216,334.199 283.5,334C 283.043,333.586 282.709,333.086 282.5,332.5C 275.5,331.833 268.5,331.167 261.5,330.5C 260.873,329.583 260.539,328.583 260.5,327.5 Z"/></g>
<g><path style="opacity:0.033" fill="#090909" d="M 375.5,-0.5 C 377.833,-0.5 380.167,-0.5 382.5,-0.5C 384.279,1.34351 386.612,2.01017 389.5,1.5C 389.5,2.83333 389.5,4.16667 389.5,5.5C 390.833,5.5 392.167,5.5 393.5,5.5C 393.5,6.5 393.5,7.5 393.5,8.5C 394.675,8.28099 395.675,8.61432 396.5,9.5C 397.137,11.3031 398.303,12.6364 400,13.5C 400.559,16.2846 401.892,18.6179 404,20.5C 403.907,23.9561 404.907,26.9561 407,29.5C 407.499,34.4889 407.666,39.4889 407.5,44.5C 408.822,44.33 409.989,44.6634 411,45.5C 411.498,48.8168 411.665,52.1501 411.5,55.5C 412.822,55.33 413.989,55.6634 415,56.5C 415.333,59.1667 415.667,61.8333 416,64.5C 418.403,70.8421 421.403,76.8421 425,82.5C 424.771,86.8789 426.104,90.5456 429,93.5C 429.498,96.4816 429.665,99.4816 429.5,102.5C 430.822,102.33 431.989,102.663 433,103.5C 435.547,108.765 437.047,114.431 437.5,120.5C 438.971,121.381 439.804,122.714 440,124.5C 440.499,129.155 440.666,133.821 440.5,138.5C 441.5,138.5 442.5,138.5 443.5,138.5C 443.5,140.833 443.5,143.167 443.5,145.5C 444.822,145.33 445.989,145.663 447,146.5C 447.498,149.817 447.665,153.15 447.5,156.5C 448.822,156.33 449.989,156.663 451,157.5C 451.498,160.817 451.665,164.15 451.5,167.5C 452.5,167.5 453.5,167.5 454.5,167.5C 453.789,171.281 454.955,174.281 458,176.5C 458.019,179.308 459.019,181.641 461,183.5C 461.498,186.482 461.665,189.482 461.5,192.5C 462.822,192.33 463.989,192.663 465,193.5C 465.176,196.882 465.676,200.215 466.5,203.5C 468.64,206.904 470.474,210.571 472,214.5C 472.172,219.202 472.672,223.868 473.5,228.5C 475.64,231.904 477.474,235.571 479,239.5C 479.497,241.81 479.663,244.143 479.5,246.5C 480.822,246.33 481.989,246.663 483,247.5C 483.498,250.817 483.665,254.15 483.5,257.5C 484.822,257.33 485.989,257.663 487,258.5C 487.753,264.457 488.919,270.124 490.5,275.5C 492.124,275.36 493.29,276.027 494,277.5C 495.754,282.699 497.254,288.033 498.5,293.5C 499.478,293.977 500.311,294.643 501,295.5C 500.907,298.956 501.907,301.956 504,304.5C 504.888,310.156 505.721,315.823 506.5,321.5C 507.086,321.709 507.586,322.043 508,322.5C 508.498,325.817 508.665,329.15 508.5,332.5C 509.822,332.33 510.989,332.663 512,333.5C 512.249,336.177 513.249,338.51 515,340.5C 515.497,342.81 515.663,345.143 515.5,347.5C 516.833,347.5 518.167,347.5 519.5,347.5C 518.732,352.221 519.899,356.221 523,359.5C 522.954,362.633 523.954,365.3 526,367.5C 526.498,370.482 526.665,373.482 526.5,376.5C 527.822,376.33 528.989,376.663 530,377.5C 530.497,379.81 530.663,382.143 530.5,384.5C 528.409,382.52 526.576,380.186 525,377.5C 524.012,374.576 523.346,371.576 523,368.5C 518.095,359.319 514.428,349.653 512,339.5C 510,336.833 508,334.167 506,331.5C 505.946,328.139 504.946,325.139 503,322.5C 502.829,317.467 502.329,312.467 501.5,307.5C 499.719,303.058 497.886,298.725 496,294.5C 495.667,291.833 495.333,289.167 495,286.5C 491.634,280.48 488.3,274.48 485,268.5C 482.081,259.236 479.414,249.903 477,240.5C 475,236.5 473,232.5 471,228.5C 471.062,218.868 468.396,210.201 463,202.5C 460.517,190.069 455.85,178.403 449,167.5C 446.692,157.328 443.025,147.661 438,138.5C 437.667,133.833 437.333,129.167 437,124.5C 435.97,122.654 434.804,120.987 433.5,119.5C 432.642,113.098 430.475,107.098 427,101.5C 424.46,95.0627 422.46,88.396 421,81.5C 419.601,78.3707 417.935,75.3707 416,72.5C 415.036,66.2432 412.703,60.5766 409,55.5C 408.916,51.5651 407.916,47.8984 406,44.5C 405.667,39.8333 405.333,35.1667 405,30.5C 401.986,27.5534 400.652,23.8867 401,19.5C 394.011,10.6515 385.511,3.98484 375.5,-0.5 Z"/></g>
<g><path style="opacity:0.993" fill="#848484" d="M 107.5,429.5 C 105.811,430.931 103.811,431.764 101.5,432C 95,438.5 88.5,445 82,451.5C 82.4867,456.242 80.8201,459.908 77,462.5C 74.8101,466.076 72.8101,469.743 71,473.5C 70.0495,481.114 68.5495,488.614 66.5,496C 66.1273,498.617 67.1273,500.45 69.5,501.5C 70.1667,505.833 70.8333,510.167 71.5,514.5C 72.9397,515.952 74.6064,516.952 76.5,517.5C 76.5,517.833 76.5,518.167 76.5,518.5C 74.9519,518.821 74.2852,519.821 74.5,521.5C 75.5,521.5 76.5,521.5 77.5,521.5C 77.238,522.978 77.5713,524.311 78.5,525.5C 81.3991,527.777 84.0658,530.277 86.5,533C 90.554,533.694 94.554,533.527 98.5,532.5C 99.4959,535.569 101.163,536.069 103.5,534C 108.155,533.501 112.821,533.334 117.5,533.5C 117.33,532.178 117.663,531.011 118.5,530C 121.167,529.667 123.833,529.333 126.5,529C 134.129,525.383 140.629,520.217 146,513.5C 147.185,509.977 149.185,506.977 152,504.5C 153.128,502.655 153.628,500.655 153.5,498.5C 153.5,497.833 153.833,497.5 154.5,497.5C 154.5,496.833 154.833,496.5 155.5,496.5C 158.044,496.896 160.211,496.229 162,494.5C 165.265,487.346 169.265,480.679 174,474.5C 178.97,461.416 184.804,448.75 191.5,436.5C 193.597,436.003 195.43,435.67 197,435.5C 198.496,437.757 200.163,439.757 202,441.5C 203.714,440.924 204.881,439.757 205.5,438C 206.5,437.333 207.5,437.333 208.5,438C 208.167,438.333 207.833,438.667 207.5,439C 208.833,439.333 210.167,439.667 211.5,440C 212.282,443.111 214.115,445.277 217,446.5C 220.043,446.501 220.21,445.668 217.5,444C 218.167,443.333 218.833,442.667 219.5,442C 222.668,441.503 225.501,441.003 228,440.5C 228.445,442.594 227.612,444.094 225.5,445C 227.995,445.157 230.328,445.324 232.5,445.5C 231.975,446.192 231.308,446.692 230.5,447C 232.192,448.401 232.859,450.234 232.5,452.5C 235.271,450.914 238.271,450.414 241.5,451C 238.955,452.139 236.955,453.305 235.5,454.5C 236.128,456.258 237.128,457.758 238.5,459C 236.833,459.333 235.167,459.667 233.5,460C 240.028,461.35 240.028,462.517 233.5,463.5C 234.217,465.828 235.217,467.995 236.5,470C 236.265,470.873 235.931,471.707 235.5,472.5C 233.053,472.558 230.553,472.892 228,473.5C 225.946,476.053 223.446,478.053 220.5,479.5C 220.709,480.086 221.043,480.586 221.5,481C 223.936,480.947 226.269,481.113 228.5,481.5C 227.395,482.892 226.061,484.059 224.5,485C 221.782,484.476 219.115,483.643 216.5,482.5C 216.5,484.167 216.5,485.833 216.5,487.5C 218.512,486.986 220.512,486.82 222.5,487C 220.53,489.316 218.196,491.149 215.5,492.5C 214.614,493.325 214.281,494.325 214.5,495.5C 216.39,495.703 217.89,495.037 219,493.5C 219.5,494 220,494.5 220.5,495C 218.023,496.643 215.69,498.476 213.5,500.5C 212.914,500.291 212.414,499.957 212,499.5C 211.915,497.915 211.749,496.582 211.5,495.5C 210.713,496.242 210.047,497.075 209.5,498C 210.833,499.333 210.833,500.667 209.5,502C 210.448,502.483 211.448,502.649 212.5,502.5C 211.644,505.458 211.477,508.458 212,511.5C 211.586,511.043 211.086,510.709 210.5,510.5C 209.5,511.833 208.5,513.167 207.5,514.5C 208.167,515.167 208.833,515.833 209.5,516.5C 208.359,517.425 208.359,518.259 209.5,519C 210.833,519.333 212.167,519.667 213.5,520C 211.141,520.208 208.974,520.374 207,520.5C 206.28,522.112 206.446,523.612 207.5,525C 206.833,525.333 206.167,525.667 205.5,526C 209.57,528.21 209.403,528.71 205,527.5C 201.912,529.115 202.412,529.782 206.5,529.5C 206.579,530.93 206.246,532.264 205.5,533.5C 207.401,534.935 207.734,536.602 206.5,538.5C 205.494,538.062 205.494,537.396 206.5,536.5C 204.579,535.359 202.579,535.192 200.5,536C 201.759,536.923 203.092,537.757 204.5,538.5C 204.322,541.804 202.656,543.471 199.5,543.5C 199.174,545.661 198.174,547.494 196.5,549C 197.858,549.934 199.192,550.768 200.5,551.5C 189.013,565.993 175.679,578.327 160.5,588.5C 157.374,588.984 154.707,590.317 152.5,592.5C 148.541,593.327 144.541,593.827 140.5,594C 136.084,595.878 131.751,597.878 127.5,600C 122.167,600.333 116.833,600.667 111.5,601C 110.695,602.113 110.028,603.279 109.5,604.5C 105.167,604.5 100.833,604.5 96.5,604.5C 96.5,603.5 96.5,602.5 96.5,601.5C 91.4889,601.666 86.4889,601.499 81.5,601C 75.8333,598.667 70.1667,596.333 64.5,594C 60.789,593.825 57.1224,593.325 53.5,592.5C 49.0415,588.543 44.7081,584.376 40.5,580C 38.7536,579.529 37.087,578.862 35.5,578C 32.318,574.651 28.9846,571.484 25.5,568.5C 24.1319,566.363 23.1319,564.03 22.5,561.5C 20.9291,560.691 19.2624,560.357 17.5,560.5C 16.2011,554.07 14.7011,547.737 13,541.5C 12,540.5 11,539.5 10,538.5C 7.60402,534.043 6.10402,529.21 5.5,524C 5.23076,522.393 4.39742,521.226 3,520.5C 2.66667,513.167 2.33333,505.833 2,498.5C 1.58309,497.244 0.749754,496.577 -0.5,496.5C -0.5,493.5 -0.5,490.5 -0.5,487.5C 0.96626,486.653 1.79959,485.32 2,483.5C 2.33333,478.167 2.66667,472.833 3,467.5C 7.04692,456.693 10.7136,445.693 14,434.5C 17.5449,425.829 22.5449,418.162 29,411.5C 31.1055,405.728 34.9389,401.562 40.5,399C 44.449,395.726 47.6157,391.893 50,387.5C 51.7772,385.21 53.9438,383.543 56.5,382.5C 57.2389,382.369 57.9056,382.536 58.5,383C 57.5494,383.718 57.3828,384.551 58,385.5C 59.0736,386.618 60.2402,387.618 61.5,388.5C 60.6744,389.451 60.5078,390.451 61,391.5C 62.2051,390.929 63.3717,390.262 64.5,389.5C 64.8773,387.176 65.8773,386.509 67.5,387.5C 67.9755,384.816 68.9755,382.483 70.5,380.5C 70.5938,382.239 70.7605,384.239 71,386.5C 73.1393,381.601 73.9727,382.268 73.5,388.5C 68.8634,388.608 68.53,389.608 72.5,391.5C 75.0799,389.393 77.7466,387.559 80.5,386C 78.4233,385.808 76.4233,385.308 74.5,384.5C 75.4086,378.947 77.5752,377.947 81,381.5C 82,379.833 83,378.167 84,376.5C 84.5205,378.289 84.1871,379.956 83,381.5C 78.289,383.391 78.4556,384.224 83.5,384C 84.8905,382.98 86.3905,382.147 88,381.5C 88.2189,380.062 88.7189,378.729 89.5,377.5C 90.086,377.709 90.586,378.043 91,378.5C 93.1678,377.371 93.6678,375.871 92.5,374C 93.3247,372.312 94.3247,372.145 95.5,373.5C 96.1667,372.167 96.8333,370.833 97.5,369.5C 97.8333,369.833 98.1667,370.167 98.5,370.5C 97.2479,372.735 96.7479,375.069 97,377.5C 97.9234,376.241 98.7568,374.908 99.5,373.5C 100.192,374.025 100.692,374.692 101,375.5C 102.828,373.919 104.828,372.585 107,371.5C 108.373,375.132 109.873,375.299 111.5,372C 111.354,370.273 110.687,370.106 109.5,371.5C 107.069,370.194 107.403,369.194 110.5,368.5C 109.189,367.742 108.689,366.742 109,365.5C 110.507,366.505 111.673,367.838 112.5,369.5C 111.911,367.627 112.578,365.96 114.5,364.5C 115.689,363.571 117.022,363.238 118.5,363.5C 118.5,364.5 118.5,365.5 118.5,366.5C 122.124,365.948 125.457,364.615 128.5,362.5C 132.627,363.161 136.46,364.495 140,366.5C 140.483,365.552 140.649,364.552 140.5,363.5C 142.199,363.66 143.866,363.494 145.5,363C 147.335,360.371 149.669,359.871 152.5,361.5C 153.167,360.167 153.833,358.833 154.5,357.5C 155.386,358.325 155.719,359.325 155.5,360.5C 156.5,360.5 157.5,360.5 158.5,360.5C 158.281,359.325 158.614,358.325 159.5,357.5C 161.134,357.032 162.3,356.032 163,354.5C 162.724,357.667 161.224,360.334 158.5,362.5C 159.167,362.833 159.833,363.167 160.5,363.5C 162.666,361.507 164.999,359.673 167.5,358C 170.863,357.374 174.196,357.041 177.5,357C 175.717,358.067 175.217,359.567 176,361.5C 177.658,359.38 179.325,357.38 181,355.5C 181.5,355.667 182,355.833 182.5,356C 181.577,358.041 181.244,360.208 181.5,362.5C 182.833,362.5 184.167,362.5 185.5,362.5C 185.343,361.127 185.51,359.793 186,358.5C 187.816,357.671 189.649,356.837 191.5,356C 189.153,355.666 186.819,355.833 184.5,356.5C 184.215,354.712 184.548,353.045 185.5,351.5C 188.603,351.923 191.436,352.923 194,354.5C 196.498,353.879 198.832,354.545 201,356.5C 201.5,356 202,355.5 202.5,355C 201.376,354.751 200.376,354.251 199.5,353.5C 203.722,350.055 205.722,351.055 205.5,356.5C 206.5,356.5 207.5,356.5 208.5,356.5C 208.5,358.5 208.5,360.5 208.5,362.5C 210.167,362.5 211.833,362.5 213.5,362.5C 214.968,361.248 215.968,359.248 216.5,356.5C 215.448,356.649 214.448,356.483 213.5,356C 212.04,355.189 211.707,354.355 212.5,353.5C 213.833,354.833 215.167,354.833 216.5,353.5C 217.707,355.27 219.374,356.27 221.5,356.5C 223.5,355.167 225.5,355.167 227.5,356.5C 228.672,356.081 229.672,355.415 230.5,354.5C 230.833,354.833 231.167,355.167 231.5,355.5C 228.471,357.699 225.471,360.032 222.5,362.5C 219.495,359.58 217.662,360.246 217,364.5C 215.989,363.663 214.822,363.33 213.5,363.5C 213.5,364.5 213.5,365.5 213.5,366.5C 217.684,365.062 218.518,366.395 216,370.5C 215.5,370 215,369.5 214.5,369C 209.999,368.337 209.665,368.837 213.5,370.5C 211.585,373.151 210.085,372.817 209,369.5C 208.798,371.256 208.298,372.922 207.5,374.5C 205.263,374.306 203.097,374.306 201,374.5C 200.333,373.833 199.667,373.167 199,372.5C 197.921,374.394 196.587,374.727 195,373.5C 193.902,374.967 192.402,375.801 190.5,376C 189.929,377.205 189.262,378.372 188.5,379.5C 186.352,378.242 184.185,378.242 182,379.5C 181.5,379.167 181,378.833 180.5,378.5C 181.529,378.704 182.529,378.204 183.5,377C 181.447,375.92 179.28,375.086 177,374.5C 176.196,376.944 174.696,378.778 172.5,380C 173.833,380.333 175.167,380.667 176.5,381C 176.273,382.135 175.94,383.302 175.5,384.5C 173.232,383.456 170.899,383.289 168.5,384C 165.179,385.895 161.679,387.395 158,388.5C 157.3,386.968 156.134,385.968 154.5,385.5C 150.787,387.337 150.787,388.837 154.5,390C 152.671,390.273 151.171,391.107 150,392.5C 147.097,389.34 146.93,386.173 149.5,383C 149,382.5 148.5,382 148,381.5C 146.013,382.218 144.179,383.218 142.5,384.5C 143.311,385.216 143.978,386.05 144.5,387C 141.596,389.077 141.93,390.411 145.5,391C 142.504,390.232 139.837,390.399 137.5,391.5C 138.035,393.271 138.869,393.604 140,392.5C 140.483,393.448 140.649,394.448 140.5,395.5C 137.791,396.483 135.124,396.65 132.5,396C 130.947,398.362 128.78,399.862 126,400.5C 124.625,402.376 123.458,404.376 122.5,406.5C 121.833,405.5 121.167,404.5 120.5,403.5C 118.954,404.684 117.287,405.684 115.5,406.5C 116.908,407.243 118.241,408.077 119.5,409C 117.77,410.852 116.604,410.686 116,408.5C 114.887,409.711 113.72,409.711 112.5,408.5C 111.702,410.078 111.202,411.744 111,413.5C 109.989,412.663 108.822,412.33 107.5,412.5C 107.741,415.999 106.908,416.332 105,413.5C 104.411,415.863 102.911,416.863 100.5,416.5C 100.227,418.451 100.893,419.951 102.5,421C 100.187,421.641 98.5202,422.974 97.5,425C 97.8499,426.257 98.5165,426.591 99.5,426C 102.135,424.039 103.969,421.539 105,418.5C 105.233,420.78 106.066,422.78 107.5,424.5C 107.023,425.478 106.357,426.311 105.5,427C 106.756,427.417 107.423,428.25 107.5,429.5 Z"/></g>
<g><path style="opacity:0.039" fill="#eaeaea" d="M 530.5,390.5 C 528.623,389.341 528.123,387.674 529,385.5C 530.269,386.905 530.769,388.571 530.5,390.5 Z"/></g>
<g><path style="opacity:0.022" fill="#0b0a09" d="M 531.5,386.5 C 532.117,386.611 532.617,386.944 533,387.5C 533.497,390.146 533.664,392.813 533.5,395.5C 531.75,394.341 530.75,392.674 530.5,390.5C 531.434,389.432 531.768,388.099 531.5,386.5 Z"/></g>
<g><path style="opacity:0.034" fill="#080808" d="M 260.5,327.5 C 238.497,327.333 216.497,327.5 194.5,328C 193.833,329 193.167,330 192.5,331C 178.628,332.539 164.628,333.872 150.5,335C 148.221,335.473 146.221,336.473 144.5,338C 141.5,338.333 138.5,338.667 135.5,339C 128.847,342.49 121.847,345.156 114.5,347C 113.167,348.333 111.833,349.667 110.5,351C 96.4441,357.241 82.7774,364.241 69.5,372C 65.0968,375.519 60.7634,379.019 56.5,382.5C 53.9438,383.543 51.7772,385.21 50,387.5C 47.6157,391.893 44.449,395.726 40.5,399C 34.9389,401.562 31.1055,405.728 29,411.5C 22.5449,418.162 17.5449,425.829 14,434.5C 10.7136,445.693 7.04692,456.693 3,467.5C 2.66667,472.833 2.33333,478.167 2,483.5C 1.79959,485.32 0.96626,486.653 -0.5,487.5C -0.5,486.167 -0.5,484.833 -0.5,483.5C 0.491194,476.687 0.824527,469.687 0.5,462.5C 1.5,462.5 2.5,462.5 3.5,462.5C 3.33499,459.15 3.50166,455.817 4,452.5C 5.01127,451.663 6.17793,451.33 7.5,451.5C 7.33499,448.15 7.50166,444.817 8,441.5C 9.01127,440.663 10.1779,440.33 11.5,440.5C 10.9159,437.017 11.7492,434.017 14,431.5C 14.3333,429.167 14.6667,426.833 15,424.5C 17.6525,422.57 18.9859,419.904 19,416.5C 21.8333,414.333 24.3333,411.833 26.5,409C 27.448,408.517 28.448,408.351 29.5,408.5C 29.3398,406.801 29.5065,405.134 30,403.5C 32.0559,402.417 33.3892,400.75 34,398.5C 35.6995,397.594 37.5328,397.261 39.5,397.5C 39.1667,394.5 40.5,393.167 43.5,393.5C 43.5,392.5 43.5,391.5 43.5,390.5C 44.8333,390.5 46.1667,390.5 47.5,390.5C 47.3398,388.801 47.5065,387.134 48,385.5C 50.3699,382.124 53.5366,379.957 57.5,379C 59.4133,377.209 61.08,375.209 62.5,373C 63.448,372.517 64.448,372.351 65.5,372.5C 65.281,371.325 65.6143,370.325 66.5,369.5C 70.6828,367.498 75.0161,365.831 79.5,364.5C 81.0708,361.907 83.4041,360.907 86.5,361.5C 86.281,360.325 86.6143,359.325 87.5,358.5C 90.3087,358.148 92.642,356.982 94.5,355C 96.8098,354.503 99.1432,354.337 101.5,354.5C 101.5,353.167 101.5,351.833 101.5,350.5C 103.833,350.5 106.167,350.5 108.5,350.5C 108.5,349.5 108.5,348.5 108.5,347.5C 111.278,347.978 113.278,346.978 114.5,344.5C 118.717,344.137 122.384,342.637 125.5,340C 131.553,337.457 137.887,335.957 144.5,335.5C 145.09,334.201 146.09,333.368 147.5,333C 154.826,332.5 162.159,332.334 169.5,332.5C 169.5,331.5 169.5,330.5 169.5,329.5C 176.833,329.5 184.167,329.5 191.5,329.5C 191.33,328.178 191.663,327.011 192.5,326C 214.833,325.333 237.167,325.333 259.5,326C 260.056,326.383 260.389,326.883 260.5,327.5 Z"/></g>
<g><path style="opacity:0.296" fill="#313030" d="M 260.5,399.5 C 270.526,398.418 280.526,398.751 290.5,400.5C 280.5,400.167 270.5,399.833 260.5,399.5 Z"/></g>
<g><path style="opacity:0.965" fill="#7f7f7f" d="M 225.5,520.5 C 225.167,521.167 224.833,521.833 224.5,522.5C 219.594,525.898 215.094,529.898 211,534.5C 210.667,537.167 210.333,539.833 210,542.5C 206.964,545.704 203.797,548.704 200.5,551.5C 199.192,550.768 197.858,549.934 196.5,549C 198.174,547.494 199.174,545.661 199.5,543.5C 202.656,543.471 204.322,541.804 204.5,538.5C 203.092,537.757 201.759,536.923 200.5,536C 202.579,535.192 204.579,535.359 206.5,536.5C 205.494,537.396 205.494,538.062 206.5,538.5C 207.734,536.602 207.401,534.935 205.5,533.5C 206.246,532.264 206.579,530.93 206.5,529.5C 202.412,529.782 201.912,529.115 205,527.5C 209.403,528.71 209.57,528.21 205.5,526C 206.167,525.667 206.833,525.333 207.5,525C 206.446,523.612 206.28,522.112 207,520.5C 208.974,520.374 211.141,520.208 213.5,520C 212.167,519.667 210.833,519.333 209.5,519C 208.359,518.259 208.359,517.425 209.5,516.5C 208.833,515.833 208.167,515.167 207.5,514.5C 208.5,513.167 209.5,511.833 210.5,510.5C 211.086,510.709 211.586,511.043 212,511.5C 211.477,508.458 211.644,505.458 212.5,502.5C 211.448,502.649 210.448,502.483 209.5,502C 210.833,500.667 210.833,499.333 209.5,498C 210.047,497.075 210.713,496.242 211.5,495.5C 211.749,496.582 211.915,497.915 212,499.5C 212.414,499.957 212.914,500.291 213.5,500.5C 215.69,498.476 218.023,496.643 220.5,495C 220,494.5 219.5,494 219,493.5C 217.89,495.037 216.39,495.703 214.5,495.5C 214.281,494.325 214.614,493.325 215.5,492.5C 218.196,491.149 220.53,489.316 222.5,487C 220.512,486.82 218.512,486.986 216.5,487.5C 216.5,485.833 216.5,484.167 216.5,482.5C 219.115,483.643 221.782,484.476 224.5,485C 226.061,484.059 227.395,482.892 228.5,481.5C 226.269,481.113 223.936,480.947 221.5,481C 221.043,480.586 220.709,480.086 220.5,479.5C 223.446,478.053 225.946,476.053 228,473.5C 230.553,472.892 233.053,472.558 235.5,472.5C 235.931,471.707 236.265,470.873 236.5,470C 235.217,467.995 234.217,465.828 233.5,463.5C 240.028,462.517 240.028,461.35 233.5,460C 235.167,459.667 236.833,459.333 238.5,459C 237.128,457.758 236.128,456.258 235.5,454.5C 236.955,453.305 238.955,452.139 241.5,451C 238.271,450.414 235.271,450.914 232.5,452.5C 232.859,450.234 232.192,448.401 230.5,447C 231.308,446.692 231.975,446.192 232.5,445.5C 230.328,445.324 227.995,445.157 225.5,445C 227.612,444.094 228.445,442.594 228,440.5C 225.501,441.003 222.668,441.503 219.5,442C 218.833,442.667 218.167,443.333 217.5,444C 220.21,445.668 220.043,446.501 217,446.5C 214.115,445.277 212.282,443.111 211.5,440C 210.167,439.667 208.833,439.333 207.5,439C 207.833,438.667 208.167,438.333 208.5,438C 207.5,437.333 206.5,437.333 205.5,438C 204.881,439.757 203.714,440.924 202,441.5C 200.163,439.757 198.496,437.757 197,435.5C 195.43,435.67 193.597,436.003 191.5,436.5C 194.955,433.326 196.788,429.326 197,424.5C 199.105,419.79 201.605,415.29 204.5,411C 224.167,410.333 243.833,410.333 263.5,411C 264.167,412 264.833,413 265.5,414C 267.764,414.236 269.931,414.736 272,415.5C 272.667,418.5 272.667,421.5 272,424.5C 266.038,431.043 262.372,438.709 261,447.5C 258.336,452.784 255.669,458.117 253,463.5C 248.404,467.08 246.07,471.747 246,477.5C 245.333,478.167 244.667,478.833 244,479.5C 243.667,483.167 243.333,486.833 243,490.5C 234.3,498.909 228.467,508.909 225.5,520.5 Z"/></g>
<g><path style="opacity:0.027" fill="#0a0a0a" d="M 225.5,520.5 C 228.467,508.909 234.3,498.909 243,490.5C 243.333,486.833 243.667,483.167 244,479.5C 244.667,478.833 245.333,478.167 246,477.5C 246.07,471.747 248.404,467.08 253,463.5C 255.669,458.117 258.336,452.784 261,447.5C 262.372,438.709 266.038,431.043 272,424.5C 272.667,421.5 272.667,418.5 272,415.5C 269.931,414.736 267.764,414.236 265.5,414C 264.833,413 264.167,412 263.5,411C 243.833,410.333 224.167,410.333 204.5,411C 201.605,415.29 199.105,419.79 197,424.5C 196.788,429.326 194.955,433.326 191.5,436.5C 184.804,448.75 178.97,461.416 174,474.5C 169.265,480.679 165.265,487.346 162,494.5C 160.211,496.229 158.044,496.896 155.5,496.5C 155.821,494.952 156.821,494.285 158.5,494.5C 158.5,493.5 158.5,492.5 158.5,491.5C 159.833,491.5 161.167,491.5 162.5,491.5C 162.337,489.143 162.503,486.81 163,484.5C 165.227,482.393 167.227,480.06 169,477.5C 169.49,476.207 169.657,474.873 169.5,473.5C 170.833,473.5 172.167,473.5 173.5,473.5C 175.652,467.871 176.985,461.871 177.5,455.5C 178.5,455.5 179.5,455.5 180.5,455.5C 180.338,453.473 180.505,451.473 181,449.5C 183.333,444.833 185.667,440.167 188,435.5C 193.146,431.953 195.479,426.953 195,420.5C 196.011,419.663 197.178,419.33 198.5,419.5C 197.617,415.046 198.95,411.546 202.5,409C 223.5,408.333 244.5,408.333 265.5,409C 268.011,411.063 270.844,412.563 274,413.5C 275.44,420.701 274.274,427.368 270.5,433.5C 269.675,434.386 268.675,434.719 267.5,434.5C 267.662,436.527 267.495,438.527 267,440.5C 265.989,441.337 264.822,441.67 263.5,441.5C 264.11,445.635 263.277,449.301 261,452.5C 260.667,454.5 260.333,456.5 260,458.5C 258.989,459.337 257.822,459.67 256.5,459.5C 256.662,461.527 256.495,463.527 256,465.5C 254.325,466.595 253.158,468.095 252.5,470C 251.552,470.483 250.552,470.649 249.5,470.5C 249.663,472.857 249.497,475.19 249,477.5C 248.311,478.357 247.478,479.023 246.5,479.5C 245.675,483.122 245.175,486.789 245,490.5C 243.007,492.818 241.841,495.484 241.5,498.5C 240.5,498.5 239.5,498.5 238.5,498.5C 238.5,499.833 238.5,501.167 238.5,502.5C 237.5,502.5 236.5,502.5 235.5,502.5C 235.662,504.527 235.495,506.527 235,508.5C 233.989,509.337 232.822,509.67 231.5,509.5C 231.808,511.924 231.474,514.257 230.5,516.5C 228.683,517.767 227.016,519.1 225.5,520.5 Z"/></g>
<g><path style="opacity:0.03" fill="#0c0b0b" d="M 259.5,399.5 C 259.833,399.5 260.167,399.5 260.5,399.5C 270.5,399.833 280.5,400.167 290.5,400.5C 294.238,402.254 298.404,403.254 303,403.5C 304.169,404.009 305.002,404.842 305.5,406C 308.914,406.297 312.247,406.964 315.5,408C 320.56,411.693 326.226,414.026 332.5,415C 337.708,416.768 342.042,419.768 345.5,424C 350.615,426.057 355.615,428.391 360.5,431C 364.167,431.333 367.833,431.667 371.5,432C 374.5,435 377.5,438 380.5,441C 392.406,446.463 402.74,454.129 411.5,464C 418.324,465.114 423.99,468.448 428.5,474C 433.384,475.721 436.717,478.888 438.5,483.5C 443.446,489.951 449.446,495.117 456.5,499C 463.127,504.62 468.627,511.12 473,518.5C 483.391,528.556 493.391,538.889 503,549.5C 504.262,553.079 505.929,556.412 508,559.5C 511.55,560.976 513.383,563.643 513.5,567.5C 511.896,566.713 511.229,565.38 511.5,563.5C 510.022,563.762 508.689,563.429 507.5,562.5C 505.823,559.147 503.657,556.147 501,553.5C 500.51,552.207 500.343,550.873 500.5,549.5C 499.5,549.5 498.5,549.5 497.5,549.5C 497.5,548.167 497.5,546.833 497.5,545.5C 496.167,545.5 494.833,545.5 493.5,545.5C 493.5,544.5 493.5,543.5 493.5,542.5C 492.325,542.719 491.325,542.386 490.5,541.5C 488.792,536.055 485.292,532.388 480,530.5C 479.517,529.552 479.351,528.552 479.5,527.5C 478.448,527.649 477.448,527.483 476.5,527C 474.219,524 471.719,521.167 469,518.5C 468.506,516.866 468.34,515.199 468.5,513.5C 465.5,513.833 464.167,512.5 464.5,509.5C 463.5,509.5 462.5,509.5 461.5,509.5C 461.5,508.5 461.5,507.5 461.5,506.5C 458.5,506.833 457.167,505.5 457.5,502.5C 456.448,502.649 455.448,502.483 454.5,502C 451.167,499.667 447.833,497.333 444.5,495C 443.663,493.989 443.33,492.822 443.5,491.5C 440.5,491.833 439.167,490.5 439.5,487.5C 438.5,487.5 437.5,487.5 436.5,487.5C 435.784,483.8 434.451,480.466 432.5,477.5C 430.167,477.5 427.833,477.5 425.5,477.5C 425.5,476.167 425.5,474.833 425.5,473.5C 424.167,473.5 422.833,473.5 421.5,473.5C 421.5,472.5 421.5,471.5 421.5,470.5C 418.5,470.833 417.167,469.5 417.5,466.5C 414.934,466.656 412.434,466.322 410,465.5C 407.383,462.69 404.383,460.356 401,458.5C 400.517,457.552 400.351,456.552 400.5,455.5C 399.167,455.5 397.833,455.5 396.5,455.5C 396.5,454.5 396.5,453.5 396.5,452.5C 394.409,452.682 392.409,452.348 390.5,451.5C 389.614,450.675 389.281,449.675 389.5,448.5C 386.407,446.793 383.074,445.293 379.5,444C 378.405,442.325 376.905,441.158 375,440.5C 374.517,439.552 374.351,438.552 374.5,437.5C 373.5,437.5 372.5,437.5 371.5,437.5C 371.5,436.5 371.5,435.5 371.5,434.5C 366.786,434.647 362.119,434.314 357.5,433.5C 357.5,432.5 357.5,431.5 357.5,430.5C 355.473,430.662 353.473,430.495 351.5,430C 349.623,427.894 347.29,426.561 344.5,426C 343.012,424.283 341.179,423.116 339,422.5C 338.517,421.552 338.351,420.552 338.5,419.5C 336.167,419.5 333.833,419.5 331.5,419.5C 331.5,418.5 331.5,417.5 331.5,416.5C 328.15,416.665 324.817,416.498 321.5,416C 320.663,414.989 320.33,413.822 320.5,412.5C 315.486,410.775 310.153,409.608 304.5,409C 303.027,408.29 302.36,407.124 302.5,405.5C 298.486,405.666 294.486,405.499 290.5,405C 289.643,404.311 288.977,403.478 288.5,402.5C 279.518,401.668 270.518,401.168 261.5,401C 260.584,400.722 259.918,400.222 259.5,399.5 Z"/></g>
<g><path style="opacity:0.988" fill="#868687" d="M 539.5,424.5 C 545.841,434.675 550.341,445.675 553,457.5C 557.333,467.5 561.667,477.5 566,487.5C 567.782,502.962 572.782,517.296 581,530.5C 580.652,534.887 581.986,538.553 585,541.5C 585.333,544.167 585.667,546.833 586,549.5C 587.884,555.655 590.05,561.655 592.5,567.5C 591.5,567.5 590.5,567.5 589.5,567.5C 589.034,577.931 584.701,586.431 576.5,593C 571.979,593.729 567.646,595.063 563.5,597C 550.603,600.285 539.77,597.118 531,587.5C 527.009,580.352 521.842,574.352 515.5,569.5C 515.167,568.5 514.5,567.833 513.5,567.5C 513.383,563.643 511.55,560.976 508,559.5C 505.929,556.412 504.262,553.079 503,549.5C 493.391,538.889 483.391,528.556 473,518.5C 468.627,511.12 463.127,504.62 456.5,499C 449.446,495.117 443.446,489.951 438.5,483.5C 438.897,482.475 439.563,482.308 440.5,483C 442.5,485.333 444.5,487.667 446.5,490C 448.441,490.743 450.274,490.576 452,489.5C 452.915,490.328 453.581,491.328 454,492.5C 454.333,491.833 454.667,491.167 455,490.5C 459.826,491.678 462.826,495.011 464,500.5C 465.049,499.483 466.216,499.316 467.5,500C 469.753,502.211 472.419,503.877 475.5,505C 477.213,506.378 478.547,508.045 479.5,510C 482.447,510.112 483.78,511.612 483.5,514.5C 485.226,514.185 486.893,514.019 488.5,514C 487.483,515.049 487.316,516.216 488,517.5C 488.667,518.833 489.333,518.833 490,517.5C 490.538,521.003 492.038,521.836 494.5,520C 494.36,518.736 494.36,517.569 494.5,516.5C 496.183,519.213 498.183,519.713 500.5,518C 499.364,516.47 498.364,515.137 497.5,514C 498.833,513 498.833,512 497.5,511C 499.514,509.317 501.18,507.317 502.5,505C 504.075,505.379 505.575,505.212 507,504.5C 507.667,503.833 507.667,503.167 507,502.5C 506.107,503.711 505.274,503.711 504.5,502.5C 506.149,501.352 507.649,500.019 509,498.5C 509.483,499.448 509.649,500.448 509.5,501.5C 513.257,501.714 513.924,500.714 511.5,498.5C 514.195,495.723 515.028,492.389 514,488.5C 509.86,486.653 507.693,487.986 507.5,492.5C 509.716,492.275 511.383,493.108 512.5,495C 511.975,495.692 511.308,496.192 510.5,496.5C 508.885,495.846 507.218,495.346 505.5,495C 506.043,491.527 507.043,488.194 508.5,485C 508.167,484.667 507.833,484.333 507.5,484C 509.336,482.581 511.336,481.414 513.5,480.5C 509.313,478.439 508.48,475.439 511,471.5C 515.788,470.618 516.455,468.618 513,465.5C 512.667,466.167 512.333,466.833 512,467.5C 511.535,466.069 510.701,464.903 509.5,464C 512.464,462.382 515.297,460.548 518,458.5C 517.746,455.917 518.246,453.25 519.5,450.5C 521.833,451.833 524.167,451.833 526.5,450.5C 527.605,457.057 528.605,457.057 529.5,450.5C 530.5,450.5 531.5,450.5 532.5,450.5C 533.682,442.545 533.682,434.711 532.5,427C 533,425.5 533.5,424 534,422.5C 535.053,426.476 536.887,427.143 539.5,424.5 Z"/></g>
<g><path style="opacity:0.032" fill="#10100f" d="M 257.5,398.5 C 236.489,398.167 215.489,398.5 194.5,399.5C 193.975,400.192 193.308,400.692 192.5,401C 183.84,401.5 175.173,401.666 166.5,401.5C 166.67,402.822 166.337,403.989 165.5,405C 158.019,404.496 151.686,406.83 146.5,412C 143.518,412.498 140.518,412.665 137.5,412.5C 137.67,413.822 137.337,414.989 136.5,416C 134.527,416.495 132.527,416.662 130.5,416.5C 130.5,417.5 130.5,418.5 130.5,419.5C 128.167,419.5 125.833,419.5 123.5,419.5C 123.649,420.552 123.483,421.552 123,422.5C 117.419,426.753 111.586,430.587 105.5,434C 104.207,434.49 102.873,434.657 101.5,434.5C 101.5,435.5 101.5,436.5 101.5,437.5C 100.167,437.5 98.8333,437.5 97.5,437.5C 97.6495,438.552 97.4828,439.552 97,440.5C 94.8507,442.728 92.8507,445.061 91,447.5C 89.9887,448.337 88.8221,448.67 87.5,448.5C 87.8333,451.5 86.5,452.833 83.5,452.5C 83.7755,458.283 81.6088,462.95 77,466.5C 76.5034,468.81 76.3367,471.143 76.5,473.5C 75.5,473.5 74.5,473.5 73.5,473.5C 73.5628,478.203 73.2295,482.87 72.5,487.5C 71.5,487.5 70.5,487.5 69.5,487.5C 69.1774,491.226 69.5108,494.893 70.5,498.5C 71.9705,499.381 72.8038,500.714 73,502.5C 73.24,507.896 74.4067,512.896 76.5,517.5C 74.6064,516.952 72.9397,515.952 71.5,514.5C 70.8333,510.167 70.1667,505.833 69.5,501.5C 67.1273,500.45 66.1273,498.617 66.5,496C 68.5495,488.614 70.0495,481.114 71,473.5C 72.8101,469.743 74.8101,466.076 77,462.5C 80.8201,459.908 82.4867,456.242 82,451.5C 88.5,445 95,438.5 101.5,432C 103.811,431.764 105.811,430.931 107.5,429.5C 109.637,428.058 111.97,426.891 114.5,426C 122.527,417.628 132.194,412.294 143.5,410C 147.833,407.667 152.167,405.333 156.5,403C 158.833,402.667 161.167,402.333 163.5,402C 163.957,401.586 164.291,401.086 164.5,400.5C 173.81,399.502 183.143,399.168 192.5,399.5C 192.33,398.178 192.663,397.011 193.5,396C 214.831,395.5 236.164,395.333 257.5,395.5C 257.5,396.5 257.5,397.5 257.5,398.5 Z"/></g>
<g><path style="opacity:0.027" fill="#eaedec" d="M 154.5,497.5 C 157.957,497.667 158.29,498.667 155.5,500.5C 154.614,499.675 154.281,498.675 154.5,497.5 Z"/></g>
<g><path style="opacity:0.013" fill="#eeeeee" d="M 76.5,518.5 C 77.5,518.833 78.1667,519.5 78.5,520.5C 77.8333,520.5 77.5,520.833 77.5,521.5C 76.5,521.5 75.5,521.5 74.5,521.5C 74.2852,519.821 74.9519,518.821 76.5,518.5 Z"/></g>
<g><path style="opacity:0.019" fill="#111110" d="M 78.5,520.5 C 80.0315,521.677 81.5315,523.011 83,524.5C 83.4828,525.448 83.6495,526.448 83.5,527.5C 87.7331,529.721 92.3998,530.888 97.5,531C 98.056,531.383 98.3893,531.883 98.5,532.5C 94.554,533.527 90.554,533.694 86.5,533C 84.0658,530.277 81.3991,527.777 78.5,525.5C 77.5713,524.311 77.238,522.978 77.5,521.5C 77.5,520.833 77.8333,520.5 78.5,520.5 Z"/></g>
<g><path style="opacity:0.018" fill="#0e0e0e" d="M 153.5,498.5 C 153.628,500.655 153.128,502.655 152,504.5C 149.185,506.977 147.185,509.977 146,513.5C 140.629,520.217 134.129,525.383 126.5,529C 123.833,529.333 121.167,529.667 118.5,530C 117.663,531.011 117.33,532.178 117.5,533.5C 112.821,533.334 108.155,533.501 103.5,534C 101.163,536.069 99.4959,535.569 98.5,532.5C 99.7498,532.577 100.583,533.244 101,534.5C 101.652,532.277 103.152,531.11 105.5,531C 112.69,530.252 119.69,529.085 126.5,527.5C 126.33,526.178 126.663,525.011 127.5,524C 129.473,523.505 131.473,523.338 133.5,523.5C 133.167,520.5 134.5,519.167 137.5,519.5C 137.5,518.5 137.5,517.5 137.5,516.5C 138.5,516.5 139.5,516.5 140.5,516.5C 140.167,513.5 141.5,512.167 144.5,512.5C 144.34,510.801 144.506,509.134 145,507.5C 147.172,506.491 148.338,504.824 148.5,502.5C 149.5,502.5 150.5,502.5 151.5,502.5C 151.229,500.62 151.896,499.287 153.5,498.5 Z"/></g>
<g><path style="opacity:0.029" fill="#0a0a0a" d="M 533.5,395.5 C 535.173,396.343 536.34,397.676 537,399.5C 537.499,403.486 537.666,407.486 537.5,411.5C 538.822,411.33 539.989,411.663 541,412.5C 541.498,415.817 541.665,419.15 541.5,422.5C 542.5,422.5 543.5,422.5 544.5,422.5C 544.5,425.167 544.5,427.833 544.5,430.5C 545.675,430.281 546.675,430.614 547.5,431.5C 549.634,436.655 551.301,441.988 552.5,447.5C 553.167,447.833 553.833,448.167 554.5,448.5C 555.487,451.768 555.82,455.102 555.5,458.5C 557.124,458.36 558.29,459.027 559,460.5C 561.62,465.369 563.12,470.703 563.5,476.5C 564.478,476.977 565.311,477.643 566,478.5C 565.954,481.633 566.954,484.3 569,486.5C 569.171,491.533 569.671,496.533 570.5,501.5C 571.167,501.833 571.833,502.167 572.5,502.5C 573.487,505.768 573.82,509.102 573.5,512.5C 574.822,512.33 575.989,512.663 577,513.5C 577.077,520.374 579.411,526.374 584,531.5C 585.691,537.062 587.191,542.728 588.5,548.5C 589.478,548.977 590.311,549.643 591,550.5C 591.064,557.483 592.231,564.15 594.5,570.5C 593.5,570.5 592.5,570.5 591.5,570.5C 591.5,574.167 591.5,577.833 591.5,581.5C 590.167,581.5 588.833,581.5 587.5,581.5C 587.808,583.924 587.474,586.257 586.5,588.5C 583.99,590.511 581.657,592.678 579.5,595C 576.312,596.316 572.978,596.816 569.5,596.5C 569.5,597.5 569.5,598.5 569.5,599.5C 560.161,599.666 550.827,599.5 541.5,599C 539.642,597.018 537.309,595.852 534.5,595.5C 533.614,594.675 533.281,593.675 533.5,592.5C 532.448,592.649 531.448,592.483 530.5,592C 529.695,590.028 528.361,588.528 526.5,587.5C 525.652,585.591 525.318,583.591 525.5,581.5C 524.5,581.5 523.5,581.5 522.5,581.5C 522.5,580.5 522.5,579.5 522.5,578.5C 519.5,578.833 518.167,577.5 518.5,574.5C 517.5,574.5 516.5,574.5 515.5,574.5C 515.5,572.833 515.5,571.167 515.5,569.5C 521.842,574.352 527.009,580.352 531,587.5C 539.77,597.118 550.603,600.285 563.5,597C 567.646,595.063 571.979,593.729 576.5,593C 584.701,586.431 589.034,577.931 589.5,567.5C 590.5,567.5 591.5,567.5 592.5,567.5C 590.05,561.655 587.884,555.655 586,549.5C 585.667,546.833 585.333,544.167 585,541.5C 581.986,538.553 580.652,534.887 581,530.5C 572.782,517.296 567.782,502.962 566,487.5C 561.667,477.5 557.333,467.5 553,457.5C 550.341,445.675 545.841,434.675 539.5,424.5C 536.52,415.114 534.52,405.447 533.5,395.5 Z"/></g>
<g><path style="opacity:0.024" fill="#0d0d0d" d="M -0.5,496.5 C 0.749754,496.577 1.58309,497.244 2,498.5C 2.33333,505.833 2.66667,513.167 3,520.5C 4.39742,521.226 5.23076,522.393 5.5,524C 6.10402,529.21 7.60402,534.043 10,538.5C 11,539.5 12,540.5 13,541.5C 14.7011,547.737 16.2011,554.07 17.5,560.5C 19.2624,560.357 20.9291,560.691 22.5,561.5C 23.1319,564.03 24.1319,566.363 25.5,568.5C 28.9846,571.484 32.318,574.651 35.5,578C 37.087,578.862 38.7536,579.529 40.5,580C 44.7081,584.376 49.0415,588.543 53.5,592.5C 57.1224,593.325 60.789,593.825 64.5,594C 70.1667,596.333 75.8333,598.667 81.5,601C 86.4889,601.499 91.4889,601.666 96.5,601.5C 96.5,602.5 96.5,603.5 96.5,604.5C 95.8333,604.5 95.1667,604.5 94.5,604.5C 89.0149,603.673 83.3482,603.173 77.5,603C 76.8333,602 76.1667,601 75.5,600C 72.1832,599.502 68.8499,599.335 65.5,599.5C 65.5,598.5 65.5,597.5 65.5,596.5C 62.1501,596.665 58.8168,596.498 55.5,596C 53.8839,595.385 52.5505,594.385 51.5,593C 50.2068,592.51 48.8734,592.343 47.5,592.5C 46.1667,590.167 44.8333,587.833 43.5,585.5C 40.5,585.833 39.1667,584.5 39.5,581.5C 37.8008,581.66 36.1341,581.494 34.5,581C 33.4045,579.325 31.9045,578.158 30,577.5C 29.5172,576.552 29.3505,575.552 29.5,574.5C 26.5,574.833 25.1667,573.5 25.5,570.5C 24.5,570.5 23.5,570.5 22.5,570.5C 22.0074,568.194 21.6741,565.861 21.5,563.5C 18.3579,563.201 16.1912,561.534 15,558.5C 15.0461,555.367 14.0461,552.7 12,550.5C 11.5026,547.854 11.3359,545.187 11.5,542.5C 10.1779,542.67 9.01127,542.337 8,541.5C 7.50335,539.19 7.33669,536.857 7.5,534.5C 6.5,534.5 5.5,534.5 4.5,534.5C 4.46186,530.047 3.2952,526.047 1,522.5C 0.829022,514.656 0.329022,506.989 -0.5,499.5C -0.5,498.5 -0.5,497.5 -0.5,496.5 Z"/></g>
<g><path style="opacity:0.036" fill="#0e0e0e" d="M 224.5,522.5 C 225.244,525.95 223.91,527.616 220.5,527.5C 219.893,530.076 218.726,532.409 217,534.5C 215.989,535.337 214.822,535.67 213.5,535.5C 213.665,538.518 213.498,541.518 213,544.5C 211.989,545.337 210.822,545.67 209.5,545.5C 209.649,546.552 209.483,547.552 209,548.5C 204.17,552.965 199.67,557.798 195.5,563C 194.207,563.49 192.873,563.657 191.5,563.5C 191.5,564.833 191.5,566.167 191.5,567.5C 190.5,567.5 189.5,567.5 188.5,567.5C 187.167,569.833 185.833,572.167 184.5,574.5C 183.325,574.281 182.325,574.614 181.5,575.5C 180.055,577.522 178.388,579.355 176.5,581C 175.552,581.483 174.552,581.649 173.5,581.5C 173.67,582.822 173.337,583.989 172.5,585C 170.527,585.495 168.527,585.662 166.5,585.5C 166.719,586.675 166.386,587.675 165.5,588.5C 160.647,590.723 155.98,593.223 151.5,596C 148.183,596.498 144.85,596.665 141.5,596.5C 141.5,597.5 141.5,598.5 141.5,599.5C 136.462,598.691 132.128,599.857 128.5,603C 122.984,603.173 117.651,603.673 112.5,604.5C 111.5,604.5 110.5,604.5 109.5,604.5C 110.028,603.279 110.695,602.113 111.5,601C 116.833,600.667 122.167,600.333 127.5,600C 131.751,597.878 136.084,595.878 140.5,594C 144.541,593.827 148.541,593.327 152.5,592.5C 154.707,590.317 157.374,588.984 160.5,588.5C 175.679,578.327 189.013,565.993 200.5,551.5C 203.797,548.704 206.964,545.704 210,542.5C 210.333,539.833 210.667,537.167 211,534.5C 215.094,529.898 219.594,525.898 224.5,522.5 Z"/></g>
</svg>
