<?xml version="1.0" encoding="UTF-8"?>
<!DOCTYPE svg PUBLIC "-//W3C//DTD SVG 1.1//EN" "http://www.w3.org/Graphics/SVG/1.1/DTD/svg11.dtd">
<svg xmlns="http://www.w3.org/2000/svg" version="1.1" width="512px" height="512px" style="shape-rendering:geometricPrecision; text-rendering:geometricPrecision; image-rendering:optimizeQuality; fill-rule:evenodd; clip-rule:evenodd" xmlns:xlink="http://www.w3.org/1999/xlink">
<g><path style="opacity:0.982" fill="#888888" d="M 256.5,12.5 C 355.096,13.6923 428.929,56.6923 478,141.5C 512.043,211.465 514.376,282.465 485,354.5C 454.75,419.086 405.916,462.919 338.5,486C 283.257,502.67 228.59,501.003 174.5,481C 165.045,476.271 155.379,472.104 145.5,468.5C 101.481,482.173 57.4814,495.84 13.5,509.5C 13.3398,507.801 13.5065,506.134 14,504.5C 28.1316,463.272 41.9649,421.939 55.5,380.5C 14.8426,307.195 10.6759,231.862 43,154.5C 75.8963,86.9418 128.396,42.4418 200.5,21C 219.054,16.4221 237.721,13.5888 256.5,12.5 Z M 254.5,54.5 C 325.724,53.6982 382.89,81.3649 426,137.5C 468.055,199.177 475.389,264.844 448,334.5C 410.413,412.178 348.246,452.845 261.5,456.5C 238.822,455.864 216.822,451.698 195.5,444C 180.564,437.28 165.73,430.447 151,423.5C 126.677,430.663 102.51,438.33 78.5,446.5C 78.1667,446 77.8333,445.5 77.5,445C 85.471,421.587 93.1376,398.087 100.5,374.5C 92.1819,359.868 84.3485,344.868 77,329.5C 47.2442,242.026 65.7442,166.526 132.5,103C 167.96,73.7899 208.627,57.6232 254.5,54.5 Z"/></g>
<g><path style="opacity:0.985" fill="#888888" d="M 176.5,136.5 C 184.53,136.478 192.53,136.978 200.5,138C 204.757,140.266 207.591,143.766 209,148.5C 215.571,165.547 221.737,182.714 227.5,200C 226.994,204.515 225.494,208.681 223,212.5C 217.667,218.5 212.333,224.5 207,230.5C 206.219,231.729 205.719,233.062 205.5,234.5C 223.839,272.004 252.172,299.171 290.5,316C 293.634,316.79 296.634,316.457 299.5,315C 308.204,305.964 316.538,296.631 324.5,287C 328.578,285.34 332.578,285.673 336.5,288C 351.833,296 367.167,304 382.5,312C 385.333,313.5 387.5,315.667 389,318.5C 389.701,348.158 375.535,366.658 346.5,374C 336.242,376.817 325.909,377.151 315.5,375C 279.781,365.476 247.781,349.143 219.5,326C 190.606,299.025 167.439,267.858 150,232.5C 141.302,212.169 140.302,191.503 147,170.5C 152.824,155.521 162.657,144.188 176.5,136.5 Z"/></g>
</svg>
